<svg width="136" height="29" viewBox="0 0 136 29" fill="none" xmlns="http://www.w3.org/2000/svg">
<g clip-path="url(#clip0_951_19785)">
<path d="M24.7291 16.2203C24.1374 16.8172 23.3784 17.1227 22.5337 17.2578C21.5833 17.4084 20.6571 17.2874 19.7367 17.0889C19.2965 16.9946 18.872 16.8327 18.4017 16.6905C18.679 16.2273 18.9349 15.8008 19.195 15.3672C19.5695 15.5277 19.9196 15.6882 20.2755 15.8289C20.9658 16.102 21.6819 16.2484 22.4294 16.2203C23.6471 16.1752 24.5176 15.5924 25.0635 14.531C25.3937 13.889 25.5195 13.2034 25.4537 12.4883C25.4351 12.2898 25.3608 12.0969 25.3194 11.8999C25.2922 11.7732 25.4209 11.6605 25.6367 11.6C25.7839 11.5578 25.8296 11.6507 25.8582 11.7563C26.317 13.4484 25.9811 14.9589 24.7305 16.2189L24.7291 16.2203ZM26.3199 0H6.57175C3.90474 0 1.72369 2.14825 1.72369 4.77374V12.135C2.14961 12.0913 2.57696 12.0603 3.00431 12.0434C3.839 12.0111 4.67512 11.9745 5.50695 12.0083C6.52029 12.0505 7.53364 12.1448 8.5427 12.2518C9.31021 12.3349 10.0792 12.439 10.8338 12.5953C11.9301 12.8219 13.0234 13.0711 14.1011 13.3724C14.9658 13.6145 15.8062 13.9425 16.6552 14.241C16.7995 14.2917 16.891 14.2818 16.9839 14.1537C17.8815 12.9275 19.8224 10.2415 19.8224 10.2415L17.3269 9.93602L19.5852 7.55689L18.9792 4.51612L21.8834 5.88728L24.6819 4.38519L24.2274 7.48369L26.6343 9.67981L23.3842 10.2176L22.0478 13.1514L20.8615 10.951C20.8615 10.951 13.4165 22.3286 12.2431 24.1249C11.7242 24.9189 11.7171 24.9259 11.204 25.7241C11.1239 25.8494 11.0668 25.8804 10.9224 25.7776C10.4322 25.4299 9.92765 25.1019 9.42741 24.7668C9.25018 24.6472 9.24018 24.5909 9.3631 24.4248C10.3307 23.1113 15.609 15.995 15.6404 15.9359C15.3989 15.8796 15.1773 15.812 14.9501 15.7768C14.0682 15.6375 13.1864 15.4798 12.2988 15.3827C11.4784 15.294 10.6509 15.2532 9.82618 15.2278C9.07581 15.2039 8.32259 15.2011 7.57223 15.2391C6.84617 15.2757 6.12153 15.3587 5.40118 15.4502C4.74086 15.5361 4.0834 15.6501 3.4288 15.7726C2.99716 15.8543 2.56981 15.9584 2.14818 16.0781C1.68224 16.2104 1.22202 16.3597 0.761797 16.5131C0.504529 16.599 0.25155 16.6919 0 16.7918C0.533115 17.0987 0.964752 17.5337 1.26204 18.0448C1.55932 18.5544 1.72369 19.14 1.72369 19.7496V24.2263C1.72369 26.8517 3.90474 29 6.57175 29H26.3199C28.9854 29 31.1665 26.8517 31.1665 24.2263V4.77374C31.1665 2.14825 28.9854 0 26.3199 0Z" fill="#FF4F01"/>
<path d="M37.3076 17.9842L38.8855 15.7008C39.866 16.7369 41.5625 17.7491 43.3305 17.7491C44.2624 17.7491 44.8127 17.4661 44.8127 16.8551C44.8127 16.2442 44.1438 16.0077 42.9003 15.7022L41.3224 15.3249C39.22 14.7829 37.6892 13.9594 37.6892 11.935C37.6892 9.67553 39.553 8.33392 42.4215 8.33392C44.9542 8.33392 46.7951 9.4165 47.6069 10.4287L46.0776 12.6881C44.9299 11.5113 43.4963 10.8749 42.1342 10.8749C41.2981 10.8749 40.7964 11.1804 40.7964 11.7464C40.7964 12.3587 41.2981 12.5938 42.8517 13.0176L44.1666 13.3709C46.7479 14.0537 47.8713 15.0419 47.8713 16.8073C47.8713 19.0442 45.9589 20.3154 43.2348 20.3154C40.5106 20.3154 38.311 19.3736 37.3076 17.9856V17.9842Z" fill="#201515"/>
<path d="M49.0649 16.5947V8.5437H52.4823V15.4178C52.4823 16.8298 52.8653 17.7012 54.4418 17.7012C56.0183 17.7012 56.5685 16.8073 56.5685 14.9237V8.5437H59.9859V20.0789H56.5685V16.8538C56.1626 18.6895 55.0392 20.314 52.6724 20.314C50.4499 20.314 49.0635 18.9724 49.0635 16.5947H49.0649Z" fill="#201515"/>
<path d="M62.1592 20.079V4.30774H65.5765V11.8407C65.911 9.98104 66.8672 8.31002 69.3055 8.31002C72.0297 8.31002 73.822 10.4991 73.822 14.3127C73.822 18.1264 72.0297 20.3394 69.1611 20.3394C66.7228 20.3394 65.8867 18.6923 65.5765 16.8326V20.0818H62.1592V20.079ZM67.799 17.7012C69.3527 17.7012 70.3317 16.5243 70.3317 14.3113C70.3317 12.0983 69.3512 10.9214 67.799 10.9214C66.3655 10.9214 65.5765 11.8154 65.5765 13.699V14.9462C65.5765 16.8298 66.3655 17.6998 67.799 17.6998V17.7012Z" fill="#201515"/>
<path d="M75.375 20.0789V8.54369H78.7924V11.8632C79.1511 9.97961 80.2016 8.30859 82.6156 8.30859C84.7667 8.30859 85.9615 9.6502 85.9615 11.8871C86.3203 9.98102 87.3708 8.30859 89.7848 8.30859C91.9359 8.30859 93.1307 9.6502 93.1307 12.0279V20.0789H89.7134V13.2048C89.7134 11.6985 89.236 10.9214 87.8496 10.9214C86.4632 10.9214 85.9615 11.8153 85.9615 13.6989V20.0789H82.5442V13.2048C82.5442 11.6985 82.0668 10.9214 80.6804 10.9214C79.294 10.9214 78.7924 11.8153 78.7924 13.6989V20.0789H75.375Z" fill="#201515"/>
<path d="M94.7071 17.5126C94.7071 15.7712 95.8305 14.7576 98.053 14.0044L101.638 12.6867C101.518 11.721 101.064 11.1804 99.7738 11.1804C98.2917 11.1804 96.9296 12.004 96.1163 13.1584L94.3955 10.7102C95.5661 9.46296 97.5027 8.30859 100.013 8.30859C102.975 8.30859 104.696 9.86277 104.696 12.7571V16.7116C104.696 17.2296 104.888 17.3943 105.318 17.3943H106.011V20.0775H104.003C102.737 20.0775 101.589 19.513 101.589 17.8645V17.0874C101.206 18.5937 100.18 20.3366 97.7886 20.3366C95.972 20.3366 94.7057 19.3708 94.7057 17.5126H94.7071ZM99.0563 17.8659C100.681 17.8659 101.589 17.0663 101.589 15.6529V14.8519L99.1035 15.8641C98.1716 16.2414 97.86 16.5694 97.86 17.017C97.86 17.559 98.2431 17.8645 99.0549 17.8645L99.0563 17.8659Z" fill="#201515"/>
<path d="M109.666 16.1949C109.498 16.4539 109.355 16.8073 109.355 17.1367C109.355 17.6787 109.643 17.9842 110.575 17.9842H114.685C117.291 17.9842 118.461 19.0428 118.461 20.7378C118.461 22.9029 116.335 24.6922 111.674 24.6922C108.065 24.6922 106.177 23.6335 106.177 22.268C106.177 21.1615 107.347 20.597 108.758 20.4323C107.778 20.2211 107.013 19.7031 107.013 18.6909C107.013 17.514 108.065 16.5483 109.188 15.9373C107.969 15.2066 107.253 14.0072 107.253 12.5234C107.253 10.0289 109.308 8.31 112.367 8.31C113.06 8.31 113.706 8.40432 114.302 8.56903L114.828 5.7915L117.864 6.80369L115.594 9.13495C116.789 9.88811 117.507 11.065 117.507 12.5249C117.507 15.0194 115.427 16.7383 112.368 16.7383C111.341 16.7383 110.433 16.5497 109.668 16.1963L109.666 16.1949ZM115.521 21.139C115.521 20.6209 115.091 20.4562 114.182 20.4562H109.235C109.091 20.6209 108.925 20.856 108.925 21.139C108.925 21.8921 109.761 22.3398 111.961 22.3398C114.326 22.3398 115.521 21.8921 115.521 21.139ZM114.302 12.5234C114.302 11.2283 113.466 10.5695 112.367 10.5695C111.268 10.5695 110.432 11.2283 110.432 12.5234C110.432 13.8186 111.292 14.4774 112.367 14.4774C113.442 14.4774 114.302 13.8186 114.302 12.5234Z" fill="#201515"/>
<path d="M119.63 7.17958V4.30774H123.047V7.17958H119.63ZM119.63 20.079V8.54371H123.047V20.079H119.63Z" fill="#201515"/>
<path d="M124.671 14.3113C124.671 10.8046 126.942 8.30859 130.551 8.30859C133.347 8.30859 135.283 9.8149 135.999 11.7928L133.155 13.4174C132.868 11.9815 132.103 11.11 130.67 11.11C129.164 11.11 128.16 12.1926 128.16 14.3113C128.16 16.43 129.163 17.5126 130.67 17.5126C132.176 17.5126 132.869 16.6412 133.155 15.2052L135.999 16.8298C135.283 18.8077 133.347 20.314 130.551 20.314C126.942 20.314 124.671 17.842 124.671 14.3113Z" fill="#201515"/>
</g>
<defs>
<clipPath id="clip0_951_19785">
<rect width="136" height="29" fill="white"/>
</clipPath>
</defs>
</svg>
