<svg width="94" height="30" viewBox="0 0 94 30" fill="none" xmlns="http://www.w3.org/2000/svg">
<g clip-path="url(#clip0_321_148)">
<path d="M20.8846 6.48657C20.8695 6.35024 20.7483 6.28964 20.6574 6.28964C20.5665 6.28964 18.5821 6.13816 18.5821 6.13816C18.5821 6.13816 17.2036 4.75965 17.0369 4.62331C16.8854 4.47183 16.5976 4.51727 16.4764 4.54757C16.4613 4.54757 16.1735 4.63846 15.7039 4.78994C15.2343 3.44173 14.4314 2.2147 12.9923 2.2147H12.8559C12.4621 1.69965 11.947 1.45728 11.5229 1.45728C8.1902 1.45728 6.58446 5.62311 6.08456 7.7439C4.78179 8.15291 3.85773 8.42558 3.75169 8.47103C3.02456 8.69826 3.00941 8.7134 2.91852 9.39509C2.84278 9.91014 0.949219 24.5587 0.949219 24.5587L15.6887 27.3158L23.6871 25.5888C23.7023 25.5585 20.8998 6.62291 20.8846 6.48657ZM14.8858 5.00202C14.5223 5.10806 14.083 5.2444 13.6437 5.39588V5.12321C13.6437 4.30519 13.5376 3.63866 13.3407 3.10846C14.0981 3.19935 14.5677 4.03252 14.8858 5.00202ZM12.4166 3.27509C12.6136 3.79014 12.7499 4.51727 12.7499 5.51707V5.66856C11.9319 5.92608 11.0684 6.1836 10.1747 6.47142C10.6746 4.56271 11.6289 3.62351 12.4166 3.27509ZM11.4471 2.33589C11.5986 2.33589 11.7501 2.39648 11.8713 2.48737C10.7957 2.98727 9.6596 4.2446 9.19 6.78954C8.47802 7.01677 7.79634 7.2137 7.14495 7.42578C7.6903 5.48677 9.05366 2.33589 11.4471 2.33589Z" fill="#B1B2B4"/>
<path d="M20.6576 6.25942C20.5667 6.25942 18.5823 6.10794 18.5823 6.10794C18.5823 6.10794 17.2038 4.72943 17.0371 4.59309C16.9766 4.5325 16.9008 4.5022 16.8402 4.5022L15.7344 27.3158L23.7328 25.5889C23.7328 25.5889 20.9303 6.62299 20.9152 6.48665C20.8546 6.35031 20.7485 6.28972 20.6576 6.25942Z" fill="#B1B2B4"/>
<path d="M12.9915 10.6827L12.022 13.6064C12.022 13.6064 11.1434 13.1368 10.0981 13.1368C8.53784 13.1368 8.46209 14.1214 8.46209 14.3638C8.46209 15.6969 11.9462 16.2119 11.9462 19.3477C11.9462 21.8169 10.386 23.4075 8.28031 23.4075C5.73536 23.4075 4.46289 21.832 4.46289 21.832L5.14457 19.59C5.14457 19.59 6.47764 20.7413 7.59863 20.7413C8.34091 20.7413 8.64388 20.1657 8.64388 19.7415C8.64388 17.9994 5.79596 17.9237 5.79596 15.0455C5.79596 12.6369 7.52289 10.304 11.0222 10.304C12.325 10.2889 12.9915 10.6827 12.9915 10.6827Z" fill="white"/>
<path d="M33.0186 16.1816C32.2157 15.7575 31.8067 15.3788 31.8067 14.8789C31.8067 14.2426 32.3823 13.8336 33.2761 13.8336C34.3213 13.8336 35.2454 14.2578 35.2454 14.2578L35.9725 12.0309C35.9725 12.0309 35.306 11.5159 33.3367 11.5159C30.5948 11.5159 28.6861 13.0913 28.6861 15.303C28.6861 16.5603 29.5799 17.5147 30.7614 18.1964C31.731 18.7266 32.0642 19.1204 32.0642 19.6961C32.0642 20.2869 31.5795 20.7716 30.6857 20.7716C29.3678 20.7716 28.1105 20.09 28.1105 20.09L27.3379 22.3168C27.3379 22.3168 28.4892 23.0893 30.4282 23.0893C33.2458 23.0893 35.2909 21.6957 35.2909 19.1962C35.2606 17.8328 34.2456 16.8936 33.0186 16.1816ZM44.2588 11.4856C42.8651 11.4856 41.7744 12.1521 40.9412 13.1519L40.9109 13.1368L42.1228 6.83502H38.9871L35.9271 22.8924H39.0628L40.1081 17.4087C40.5171 15.3333 41.5926 14.0457 42.5924 14.0457C43.3044 14.0457 43.5771 14.5304 43.5771 15.2121C43.5771 15.6363 43.5468 16.1816 43.4407 16.6058L42.2592 22.8924H45.3949L46.6219 16.4089C46.7583 15.7272 46.8491 14.9092 46.8491 14.3487C46.834 12.546 45.9099 11.4856 44.2588 11.4856ZM53.9386 11.4856C50.1515 11.4856 47.652 14.894 47.652 18.6963C47.652 21.12 49.1517 23.0893 51.9693 23.0893C55.6807 23.0893 58.1802 19.7718 58.1802 15.8787C58.1954 13.6215 56.8926 11.4856 53.9386 11.4856ZM52.3935 20.6959C51.318 20.6959 50.8787 19.787 50.8787 18.6357C50.8787 16.833 51.8027 13.9094 53.5145 13.9094C54.6203 13.9094 54.999 14.8789 54.999 15.8029C54.999 17.7268 54.0447 20.6959 52.3935 20.6959ZM66.2241 11.4856C64.1033 11.4856 62.9066 13.364 62.9066 13.364H62.8763L63.058 11.6825H60.2707C60.1344 12.8187 59.8769 14.5607 59.6345 15.8484L57.4682 27.3461H60.604L61.4826 22.6955H61.5583C61.5583 22.6955 62.2097 23.1045 63.3913 23.1045C67.0875 23.1045 69.4962 19.3174 69.4962 15.5C69.481 13.3792 68.5266 11.4856 66.2241 11.4856ZM63.2247 20.7262C62.4067 20.7262 61.9219 20.2566 61.9219 20.2566L62.437 17.3329C62.8005 15.3636 63.8306 14.076 64.9213 14.076C65.8908 14.076 66.1786 14.9698 66.1786 15.8029C66.1938 17.8328 64.9819 20.7262 63.2247 20.7262ZM73.965 6.9865C72.9652 6.9865 72.1623 7.78937 72.1623 8.80432C72.1623 9.72838 72.7531 10.3798 73.6468 10.3798H73.6771C74.6618 10.3798 75.495 9.71323 75.5101 8.56194C75.5253 7.63788 74.9042 6.9865 73.965 6.9865ZM69.5719 22.8773H72.7076L74.8284 11.728H71.6775M82.8268 11.7128H80.6454L80.7515 11.1978C80.9333 10.1222 81.5695 9.18303 82.6299 9.18303C83.1904 9.18303 83.6297 9.34966 83.6297 9.34966L84.2356 6.88046C84.2356 6.88046 83.7054 6.60779 82.5239 6.60779C81.418 6.60779 80.297 6.92591 79.4487 7.65303C78.3732 8.56194 77.8733 9.87986 77.6309 11.2129L77.54 11.728H76.0706L75.601 14.1063H77.0704L75.4041 22.8924H78.5398L80.2061 14.1063H82.3724L82.8268 11.7128ZM90.3859 11.728C90.3859 11.728 88.4166 16.6815 87.5532 19.3931H87.5229C87.4623 18.5145 86.7503 11.728 86.7503 11.728H83.4479L85.3415 21.9381C85.3718 22.1653 85.3566 22.3016 85.2657 22.4531C84.9022 23.1651 84.2811 23.8468 83.554 24.3467C82.9632 24.7708 82.2966 25.0587 81.7664 25.2404L82.645 27.9066C83.2813 27.7702 84.6143 27.24 85.7202 26.1948C87.1441 24.8617 88.4772 22.7864 89.8406 19.9688L93.6731 11.7128H90.3859V11.728Z" fill="#B1B2B4"/>
</g>
<defs>
<clipPath id="clip0_321_148">
<rect width="92.7088" height="29.0851" fill="white" transform="translate(0.964844 0.457397)"/>
</clipPath>
</defs>
</svg>
