<svg width="153" height="20" viewBox="0 0 153 20" fill="none" xmlns="http://www.w3.org/2000/svg">
<g clip-path="url(#clip0_321_146)">
<path d="M15.5523 4.8552L15.263 6.10671C15.2479 6.19326 15.204 6.27134 15.1393 6.32707C15.0746 6.38281 14.9932 6.41259 14.9096 6.41113H7.84014C7.36886 6.41113 7.10108 6.5577 7.03682 6.85085L6.9404 7.25673C6.89756 7.52733 7.09036 7.66262 7.51881 7.66262H12.1139C13.6135 7.66262 14.3632 8.24892 14.3632 9.42151C14.3632 9.71466 14.3204 10.0416 14.2347 10.4024L13.7527 12.4658C13.5621 13.2886 13.1082 14.0172 12.4674 14.5292C11.8033 15.0704 11.0107 15.341 10.0896 15.341H0.610262C0.557215 15.3381 0.50548 15.3226 0.458903 15.2957C0.412327 15.2688 0.372105 15.2312 0.34123 15.1857C0.310354 15.1402 0.289619 15.088 0.280564 15.0329C0.271509 14.9778 0.274368 14.9212 0.288929 14.8675L0.578142 13.6159C0.599702 13.5357 0.646273 13.4653 0.710375 13.4162C0.774477 13.3672 0.852388 13.3422 0.931595 13.3453H8.03311C8.46157 13.3453 8.71863 13.1649 8.80431 12.8042L8.90073 12.4659C8.98641 12.1051 8.80432 11.9247 8.35446 11.9247H3.63093C2.21712 11.9247 1.51021 11.3384 1.51021 10.1658C1.51521 9.84571 1.55839 9.52751 1.63875 9.21873L2.12074 7.12159C2.31355 6.30981 2.77413 5.65586 3.50249 5.15976C4.23085 4.66366 5.04489 4.41561 5.9446 4.41561H15.1991C15.2514 4.41469 15.3033 4.42602 15.351 4.4488C15.3987 4.47157 15.441 4.50521 15.4748 4.54729C15.5086 4.58937 15.5332 4.63883 15.5466 4.6921C15.5601 4.74537 15.5621 4.80112 15.5526 4.85532L15.5523 4.8552ZM29.4982 7.69645L28.4699 12.0936C27.9558 14.2585 26.6383 15.3409 24.5174 15.3409H20.3079C19.6438 15.3409 19.2903 14.9801 19.2475 14.2585H19.1832L18.0264 19.2983C18.0121 19.3488 17.9823 19.3929 17.9415 19.4235C17.9008 19.4542 17.8515 19.4696 17.8015 19.4674H13.0457C13.0132 19.4678 12.9811 19.4608 12.9515 19.4468C12.9219 19.4328 12.8955 19.4123 12.8741 19.3866C12.8527 19.3609 12.8369 19.3306 12.8277 19.2979C12.8185 19.2651 12.8161 19.2306 12.8207 19.1968L16.2912 4.58459C16.3037 4.53942 16.3287 4.49921 16.3631 4.46909C16.3974 4.43897 16.4395 4.4203 16.4839 4.41546H20.9506C20.983 4.41511 21.0152 4.42216 21.0448 4.43611C21.0744 4.45007 21.1008 4.4706 21.1222 4.49631C21.1436 4.52202 21.1594 4.55229 21.1686 4.58504C21.1778 4.6178 21.1802 4.65226 21.1755 4.68607C21.1434 4.92284 21.3683 5.05815 21.529 4.92284C21.8932 4.58459 22.2466 4.41546 22.5894 4.41546H27.0881C28.7804 4.41546 29.6266 5.15958 29.6266 6.6478C29.6222 7.00136 29.5792 7.35329 29.4982 7.69645ZM24.389 7.32438C24.4112 7.22461 24.422 7.12242 24.4211 7.01996C24.4211 6.70426 24.2176 6.54641 23.8106 6.54641H21.7219C21.272 6.54641 20.9828 6.80573 20.8543 7.32438L19.6332 12.3982C19.6089 12.4975 19.598 12.6 19.6011 12.7026C19.6011 13.0408 19.7832 13.21 20.1474 13.21H22.236C22.7287 13.21 23.0394 12.9394 23.1679 12.3982L24.389 7.32438ZM44.0866 7.56115L43.0262 12.1612C42.7691 13.2211 42.3835 13.9991 41.8694 14.4952C41.291 15.059 40.4662 15.3408 39.395 15.3408H31.0081C29.4657 15.3408 28.6944 14.7207 28.6944 13.4805C28.6944 13.1197 28.7587 12.68 28.8872 12.1613L29.9798 7.56123C30.2154 6.50139 30.5903 5.72339 31.1045 5.22724C31.7043 4.68604 32.529 4.41544 33.5786 4.41544H41.9976C43.5185 4.41544 44.279 5.03557 44.279 6.27581C44.279 6.6366 44.2147 7.06505 44.0862 7.56115H44.0866ZM38.9453 7.35821C38.9783 7.25986 38.9999 7.15763 39.0095 7.05379C39.0095 6.71554 38.806 6.54641 38.399 6.54641H36.1496C35.6783 6.54641 35.3784 6.81701 35.2499 7.35821L34.061 12.3643C34.0259 12.4737 34.0043 12.5874 33.9967 12.7025C33.9967 13.0408 34.1895 13.2099 34.5751 13.2099H36.8244C37.3172 13.2099 37.6278 12.928 37.7563 12.3643L38.9453 7.35821ZM55.4297 5.12587L54.9798 7.02006C54.9517 7.14252 54.8862 7.25187 54.7933 7.33131C54.7004 7.41075 54.5853 7.45589 54.4657 7.45978H52.2484C51.3915 7.45978 50.7703 7.57253 50.3847 7.79802C49.9991 8.02352 49.742 8.47451 49.6135 9.15101L48.2317 14.9012C48.2036 15.0237 48.1381 15.133 48.0452 15.2125C47.9523 15.2919 47.8372 15.337 47.7176 15.3409H43.6367C43.5527 15.3434 43.4693 15.3255 43.393 15.2886C43.3167 15.2516 43.2495 15.1966 43.1967 15.1279C43.1438 15.0592 43.1068 14.9786 43.0883 14.8923C43.0699 14.8061 43.0706 14.7165 43.0904 14.6306L45.4041 4.85528C45.4335 4.7272 45.5038 4.61363 45.6032 4.53359C45.7026 4.45354 45.8252 4.41188 45.9503 4.41557H49.6457C49.727 4.41819 49.8066 4.43986 49.8789 4.479C49.9512 4.51815 50.0143 4.57378 50.0635 4.64183C50.1128 4.70989 50.147 4.78866 50.1637 4.8724C50.1803 4.95614 50.179 5.04274 50.1599 5.12589L49.9028 6.17446H49.9671C50.3741 5.49796 50.8025 5.03569 51.2524 4.78764C51.7023 4.53959 52.3021 4.41557 53.0519 4.41557H54.8835C54.9674 4.41307 55.0508 4.431 55.1271 4.46794C55.2034 4.50488 55.2706 4.55984 55.3235 4.62856C55.3763 4.69727 55.4134 4.77789 55.4318 4.86415C55.4503 4.9504 55.4495 5.03995 55.4297 5.12587ZM67.1906 5.12587L66.9657 6.10677C66.9363 6.23486 66.866 6.34843 66.7665 6.42847C66.6671 6.50851 66.5445 6.55018 66.4194 6.54649H63.1418C63.0166 6.5428 62.8941 6.58447 62.7947 6.66451C62.6952 6.74456 62.6249 6.85813 62.5955 6.98621L61.3423 12.3981C61.3098 12.4966 61.2882 12.5988 61.278 12.7025C61.278 13.0408 61.5137 13.2099 61.985 13.2099H65.1019C65.1859 13.2074 65.2692 13.2253 65.3456 13.2623C65.4219 13.2992 65.4891 13.3542 65.5419 13.4229C65.5947 13.4916 65.6318 13.5722 65.6503 13.6585C65.6687 13.7447 65.668 13.8343 65.6482 13.9202L65.4233 14.9011C65.3939 15.0292 65.3235 15.1428 65.2241 15.2228C65.1247 15.3029 65.0021 15.3446 64.877 15.3409H58.2253C57.5398 15.3409 57.0042 15.1492 56.6186 14.7658C56.233 14.3825 56.0402 13.8526 56.0402 13.1761C56.0372 12.8575 56.0696 12.5397 56.1366 12.229L57.3256 7.2906C57.3514 7.20251 57.3568 7.10916 57.3412 7.01844C57.3256 6.92771 57.2894 6.84227 57.2359 6.76931C57.1823 6.69635 57.1129 6.63802 57.0334 6.59923C56.954 6.56045 56.8668 6.54234 56.7793 6.54645H56.0081C55.9206 6.55056 55.8335 6.53246 55.754 6.49368C55.6745 6.45489 55.6051 6.39656 55.5515 6.3236C55.498 6.25064 55.4618 6.1652 55.4462 6.07447C55.4306 5.98374 55.436 5.8904 55.4618 5.8023L55.6868 4.8552C55.7162 4.72712 55.7865 4.61355 55.8859 4.53351C55.9854 4.45346 56.1079 4.4118 56.233 4.41549H57.5505C57.6756 4.41917 57.7982 4.37751 57.8976 4.29746C57.9971 4.21742 58.0674 4.10385 58.0968 3.97577L58.4502 2.48748C58.4797 2.3594 58.55 2.24583 58.6494 2.16579C58.7488 2.08574 58.8714 2.04408 58.9965 2.04776H63.0454C63.1293 2.04527 63.2127 2.06319 63.289 2.10013C63.3653 2.13707 63.4325 2.19204 63.4854 2.26076C63.5382 2.32947 63.5753 2.41009 63.5937 2.49635C63.6122 2.5826 63.6115 2.67217 63.5917 2.75809L63.3989 3.67135C63.3739 3.75668 63.3682 3.84696 63.3821 3.93503C63.396 4.0231 63.4293 4.10654 63.4792 4.17875C63.529 4.25096 63.5942 4.30995 63.6695 4.35104C63.7448 4.39213 63.8282 4.4142 63.913 4.4155H66.6444C66.7284 4.41301 66.8118 4.43094 66.8881 4.46788C66.9644 4.50482 67.0316 4.55978 67.0844 4.6285C67.1373 4.69721 67.1743 4.77783 67.1928 4.86409C67.2112 4.95034 67.2104 5.03995 67.1906 5.12587ZM81.1686 4.92292L80.9116 6.07296C80.8908 6.16571 80.8419 6.24884 80.7724 6.30984C80.7029 6.37085 80.6164 6.40642 80.526 6.41121H73.4888C73.0175 6.41121 72.7497 6.55778 72.6854 6.85093L72.589 7.25681C72.5248 7.52741 72.7176 7.6627 73.1674 7.6627H77.7625C79.2621 7.6627 80.0119 8.249 80.0119 9.42159C80.0119 9.71474 79.969 10.0417 79.8834 10.4025L79.4014 12.4659C79.2024 13.2935 78.7367 14.0228 78.0839 14.5293C77.4198 15.0705 76.6379 15.3411 75.7381 15.3411H66.323C66.2617 15.3379 66.2018 15.3205 66.1477 15.2902C66.0935 15.2599 66.0463 15.2174 66.0095 15.1657C65.9727 15.1141 65.9472 15.0545 65.9347 14.9913C65.9222 14.9281 65.9231 14.8627 65.9374 14.7999L66.1944 13.6499C66.221 13.5634 66.2723 13.4877 66.3413 13.4332C66.4104 13.3787 66.4938 13.348 66.58 13.3454H73.6815C74.11 13.3454 74.3671 13.165 74.4528 12.8043L74.5491 12.466C74.6348 12.1052 74.4528 11.9248 74.0029 11.9248H69.2794C67.844 11.9248 67.1264 11.3385 67.1264 10.1659C67.1314 9.84581 67.1746 9.52761 67.2549 9.21883L67.7691 7.12169C67.9404 6.30991 68.401 5.65596 69.1508 5.15986C69.9006 4.66376 70.7146 4.41571 71.5929 4.41571H80.7831C80.841 4.41966 80.8976 4.4363 80.9491 4.46455C81.0006 4.49281 81.046 4.53206 81.0823 4.57981C81.1186 4.62756 81.145 4.68275 81.1599 4.74186C81.1748 4.80096 81.1777 4.86253 81.1686 4.92292ZM93.7971 5.05822L91.2907 6.81711C91.2265 6.85802 91.1762 6.91942 91.1473 6.9924C91.1185 7.06538 91.1124 7.14615 91.1301 7.223L93.5401 14.8674C93.5547 14.9212 93.5575 14.9777 93.5485 15.0328C93.5394 15.0879 93.5187 15.1402 93.4878 15.1857C93.4569 15.2312 93.4167 15.2688 93.3701 15.2957C93.3236 15.3225 93.2718 15.338 93.2188 15.341H87.9168C87.8431 15.3368 87.7725 15.3085 87.7149 15.26C87.6572 15.2114 87.6155 15.1451 87.5955 15.0704L86.5672 10.7409C86.5505 10.6884 86.5229 10.6404 86.4864 10.6006C86.4499 10.5607 86.4053 10.5299 86.3561 10.5105C86.3068 10.491 86.254 10.4834 86.2016 10.4882C86.1492 10.4929 86.0984 10.5099 86.053 10.538L85.5068 10.91C85.4435 10.9606 85.3982 11.032 85.3782 11.113L84.4142 15.0704C84.3942 15.1452 84.3525 15.2115 84.2948 15.26C84.2372 15.3085 84.1666 15.3368 84.0929 15.341H79.5942C79.5446 15.3371 79.4963 15.3223 79.4525 15.2974C79.4087 15.2726 79.3704 15.2383 79.3401 15.1968C79.3098 15.1553 79.2881 15.1075 79.2765 15.0566C79.2649 15.0057 79.2637 14.9527 79.2729 14.9013L82.6148 0.728789C82.6364 0.6485 82.683 0.578168 82.7471 0.529092C82.8112 0.480016 82.8891 0.455043 82.9683 0.458184H87.467C87.5166 0.462046 87.5649 0.476887 87.6087 0.501736C87.6525 0.526585 87.6908 0.560883 87.7211 0.602387C87.7514 0.643892 87.7731 0.691667 87.7847 0.74259C87.7963 0.793514 87.7975 0.846438 87.7883 0.897902L86.2459 7.32451C86.234 7.39644 86.2425 7.47047 86.2703 7.53738C86.298 7.60429 86.3439 7.66111 86.4021 7.70078C86.4604 7.74045 86.5284 7.7612 86.5978 7.76045C86.6671 7.75971 86.7348 7.7375 86.7922 7.69659L91.3552 4.48328C91.4118 4.44135 91.4789 4.41783 91.548 4.41563H93.6046C93.926 4.41563 94.0866 4.88918 93.7974 5.05829L93.7971 5.05822ZM108.964 7.52742L108.129 11.0453H99.4206L99.1636 12.0938C99.1401 12.2163 99.1293 12.341 99.1314 12.4659C99.1314 12.962 99.4099 13.2101 99.9669 13.2101H107.39L106.908 15.341H96.0788C94.5363 15.341 93.7651 14.7208 93.7651 13.4806C93.7651 13.0973 93.8294 12.635 93.9579 12.0938L95.0183 7.52746C95.2754 6.46762 95.6717 5.68962 96.2073 5.19346C96.7857 4.67482 97.5997 4.4155 98.6494 4.4155H106.811C108.375 4.4155 109.157 5.03562 109.157 6.27586C109.157 6.63666 109.093 7.05387 108.964 7.52742ZM103.919 7.39212C103.941 7.26942 103.952 7.14485 103.951 7.02004C103.951 6.70434 103.737 6.54649 103.309 6.54649H101.252C100.738 6.54649 100.406 6.82837 100.256 7.39212L99.9025 8.91423H103.566L103.919 7.39212ZM123.777 7.52742L122.942 11.0453H114.234L113.977 12.0938C113.953 12.2163 113.942 12.341 113.944 12.4659C113.944 12.962 114.234 13.2101 114.812 13.2101H122.235L121.721 15.341H110.892C109.349 15.341 108.578 14.7208 108.578 13.4806C108.578 13.0973 108.642 12.635 108.771 12.0938L109.863 7.52746C110.099 6.46762 110.485 5.68962 111.02 5.19346C111.62 4.67482 112.434 4.4155 113.462 4.4155H121.624C123.188 4.4155 123.97 5.03562 123.97 6.27586C123.97 6.63666 123.906 7.05387 123.777 7.52742ZM118.732 7.39212C118.754 7.26942 118.765 7.14485 118.764 7.02004C118.764 6.70434 118.55 6.54649 118.122 6.54649H116.065C115.551 6.54649 115.23 6.82837 115.101 7.39212L114.748 8.91423H118.379L118.732 7.39212ZM139.812 0.728652L136.373 15.1718C136.361 15.2169 136.336 15.2571 136.301 15.2872C136.267 15.3174 136.225 15.336 136.18 15.3409H131.553C131.521 15.3412 131.489 15.3342 131.459 15.3202C131.429 15.3063 131.403 15.2857 131.382 15.26C131.36 15.2343 131.344 15.2041 131.335 15.1713C131.326 15.1385 131.324 15.1041 131.328 15.0703C131.327 15.0313 131.316 14.9933 131.297 14.9598C131.278 14.9263 131.251 14.8982 131.219 14.8781C131.188 14.858 131.152 14.8465 131.114 14.8446C131.077 14.8428 131.04 14.8506 131.007 14.8673C130.664 15.183 130.354 15.3409 130.075 15.3409H125.544C123.852 15.3409 123.006 14.5968 123.006 13.1085C123.008 12.7436 123.051 12.3803 123.134 12.0261L124.195 7.66271C124.709 5.49788 126.026 4.41546 128.147 4.41546H132.325C133.01 4.41546 133.374 4.76498 133.417 5.46403H133.449L134.606 0.627092C134.62 0.57657 134.65 0.532502 134.691 0.501867C134.732 0.471233 134.781 0.455784 134.831 0.457967H139.587C139.619 0.457616 139.651 0.46466 139.681 0.478615C139.711 0.492571 139.737 0.513107 139.758 0.538814C139.78 0.564521 139.796 0.594791 139.805 0.627545C139.814 0.6603 139.816 0.694764 139.812 0.728572L139.812 0.728652ZM133.031 7.32442C133.056 7.22506 133.067 7.12256 133.064 7.02C133.064 6.7043 132.871 6.54645 132.485 6.54645H130.429C129.936 6.54645 129.625 6.80577 129.497 7.32442L128.276 12.3982C128.243 12.4966 128.221 12.5988 128.211 12.7026C128.211 13.0409 128.426 13.21 128.854 13.21H130.911C131.382 13.21 131.682 12.9394 131.81 12.3982L133.031 7.32442ZM152.729 8.30534L151.09 15.1717C151.084 15.2142 151.065 15.2534 151.036 15.2838C151.007 15.3142 150.97 15.3342 150.93 15.3408H146.334C146.306 15.3413 146.278 15.3351 146.252 15.3229C146.227 15.3106 146.204 15.2926 146.185 15.27C146.167 15.2474 146.154 15.2208 146.146 15.1921C146.138 15.1635 146.137 15.1334 146.142 15.1041L146.367 14.1231H146.334C145.992 14.9349 145.242 15.3408 144.085 15.3408H140.165C138.558 15.3408 137.755 14.7207 137.755 13.4805C137.755 13.0971 137.83 12.6461 137.98 12.1275L138.205 11.1128C138.483 9.98527 138.901 9.17345 139.458 8.67731C140.015 8.18121 140.807 7.93316 141.836 7.93316H147.459C147.495 7.92888 147.53 7.9139 147.558 7.88995C147.586 7.86601 147.608 7.83408 147.62 7.79786L147.78 7.25667C147.789 7.18931 147.789 7.12108 147.78 7.05373C147.78 6.71547 147.566 6.54635 147.138 6.54635H140.004C139.979 6.54226 139.954 6.53284 139.932 6.51864C139.91 6.50444 139.891 6.48575 139.876 6.46368C139.861 6.44161 139.851 6.4166 139.845 6.39013C139.839 6.36366 139.839 6.33627 139.843 6.30957L140.261 4.55068C140.273 4.51446 140.295 4.48253 140.323 4.45859C140.351 4.43465 140.386 4.41967 140.422 4.41538H150.223C152.044 4.41538 152.954 5.18206 152.954 6.71542C152.954 7.16642 152.879 7.6965 152.729 8.30534ZM147.041 10.301C147.046 10.2717 147.045 10.2416 147.037 10.2129C147.029 10.1842 147.016 10.1577 146.998 10.1351C146.979 10.1125 146.956 10.0944 146.931 10.0822C146.905 10.0699 146.877 10.0638 146.849 10.0642H144.792C144.342 10.0642 144.031 10.1432 143.86 10.301C143.689 10.4589 143.56 10.6844 143.474 10.9775L143.121 12.2967C143.097 12.419 143.086 12.5438 143.089 12.6687C143.089 13.0295 143.389 13.2099 143.989 13.2099H145.402C145.809 13.2099 146.088 13.1197 146.238 12.9393C146.388 12.7589 146.527 12.3981 146.656 11.8569L147.041 10.301Z" fill="#B1B2B4"/>
</g>
<defs>
<clipPath id="clip0_321_146">
<rect width="152.68" height="19.085" fill="white" transform="translate(0.285156 0.45752)"/>
</clipPath>
</defs>
</svg>
