<svg width="82" height="22" viewBox="0 0 82 22" fill="none" xmlns="http://www.w3.org/2000/svg">
<path d="M19.1223 15.0825L19.1088 15.0419L26.3241 8.43574V5.2545H14.7498V8.43574H21.6673L21.6808 8.46281L14.5332 15.0825V18.2637H26.4595V15.0825H19.1223ZM33.5665 4.94315C32.2263 4.94315 31.1433 5.1462 30.304 5.55232C29.5189 5.90429 28.8555 6.48638 28.4088 7.21739C27.9756 7.9484 27.7049 8.77417 27.6101 9.62701L31.1298 10.1143C31.2516 9.3698 31.5088 8.82832 31.8879 8.51696C32.3211 8.19207 32.8625 8.02962 33.404 8.04316C34.1215 8.04316 34.6359 8.23268 34.9608 8.61172C35.2857 8.99076 35.4482 9.51871 35.4482 10.2226V10.5746H32.0639C30.3446 10.5746 29.1128 10.9537 28.3547 11.7253C27.5966 12.4834 27.2311 13.4986 27.2311 14.7441C27.2311 16.0301 27.6101 16.9777 28.3547 17.6004C29.0992 18.2231 30.0468 18.5345 31.1839 18.5345C32.5918 18.5345 33.6748 18.0471 34.4329 17.0725C34.8796 16.4768 35.2045 15.8 35.3669 15.069H35.4888L35.9761 18.2502H39.1573V10.1956C39.1573 8.5305 38.7242 7.23093 37.8442 6.32394C36.9643 5.41695 35.5294 4.94315 33.5665 4.94315ZM34.6765 14.893C34.1757 15.3126 33.5123 15.5292 32.6866 15.5292C32.0097 15.5292 31.5359 15.4074 31.2652 15.1773C31.1298 15.069 31.035 14.92 30.9673 14.7711C30.8997 14.6087 30.859 14.4462 30.8726 14.2703C30.859 14.1078 30.8861 13.9454 30.9538 13.7965C31.0215 13.6476 31.1027 13.5122 31.211 13.3903C31.3328 13.2821 31.4682 13.1873 31.6307 13.1331C31.7931 13.079 31.9556 13.0519 32.118 13.0655H35.4482V13.282C35.4482 13.5934 35.394 13.9048 35.2586 14.1755C35.1097 14.4462 34.9202 14.7035 34.6765 14.893ZM58.4208 5.2545H54.6574V18.2773H58.4208V5.2545ZM80.6353 5.2545C79.5658 5.2545 78.7401 5.63354 78.1174 6.37809C77.6842 6.91957 77.3457 7.71827 77.1156 8.77417H77.0073L76.52 5.2545H73.3116V18.2773H77.075V11.6034C77.075 10.7641 77.278 10.1144 77.6706 9.66762C78.0632 9.2209 78.7942 8.99076 79.8501 8.99076H81.2851V5.2545H80.6353ZM69.5754 5.67415C68.6955 5.1462 67.5854 4.88899 66.2452 4.88899C64.1334 4.88899 62.4954 5.48463 61.3042 6.68944C60.1129 7.89425 59.5173 9.54579 59.5173 11.6441C59.4902 12.9165 59.7609 14.1755 60.3295 15.3262C60.8439 16.3415 61.6426 17.1943 62.6308 17.7629C63.6326 18.345 64.8103 18.6292 66.1911 18.6292C67.3824 18.6292 68.3706 18.4397 69.1693 18.0742C69.9138 17.7493 70.5771 17.2349 71.0645 16.5716C71.5383 15.9353 71.8902 15.2043 72.0933 14.4462L68.8444 13.5393C68.709 14.0401 68.4383 14.4869 68.0863 14.8659C67.7208 15.2314 67.1116 15.4209 66.2452 15.4209C65.2164 15.4209 64.4583 15.1231 63.9575 14.541C63.592 14.1214 63.3618 13.5122 63.2671 12.727H72.1475C72.1881 12.3615 72.2016 12.0502 72.2016 11.8065V10.9943C72.2287 9.91129 71.9985 8.82832 71.5383 7.8401C71.1186 6.93311 70.4282 6.17503 69.5754 5.67415ZM66.1369 8.00255C67.6666 8.00255 68.533 8.74709 68.7361 10.2497H63.3348C63.416 9.74884 63.6326 9.27505 63.9439 8.86893C64.4313 8.28683 65.1623 8.00255 66.1369 8.00255ZM56.5797 0.0020731C56.2954 -0.0114641 56.0111 0.0426846 55.7539 0.137445C55.4832 0.245742 55.2531 0.394652 55.05 0.584172C54.8469 0.78723 54.698 1.01736 54.5897 1.28811C54.4814 1.54531 54.4408 1.82959 54.4544 2.11387C54.4408 2.39816 54.495 2.68244 54.6033 2.93964C54.7116 3.21039 54.8605 3.44052 55.0635 3.64358C55.2666 3.84663 55.5103 3.99554 55.7675 4.10384C56.0247 4.21214 56.309 4.25275 56.5932 4.23921C56.8775 4.25275 57.1618 4.1986 57.419 4.10384C57.6762 3.99554 57.9199 3.84663 58.1229 3.64358C58.326 3.44052 58.4749 3.19685 58.5697 2.93964C58.6644 2.6689 58.7186 2.39816 58.705 2.11387C58.7186 1.82959 58.678 1.54531 58.5697 1.28811C58.4614 1.0309 58.3125 0.78723 58.1094 0.584172C57.9063 0.381115 57.6762 0.232206 57.4055 0.123909C57.1483 0.0426859 56.864 -0.0114641 56.5797 0.0020731ZM48.8094 4.88899C47.5233 4.88899 46.4945 5.29511 45.7229 6.09381C45.1408 6.68944 44.7211 7.5829 44.4504 8.76063H44.3285L43.8412 5.24096H40.6329V22H44.3962V15.096H44.5316C44.6399 15.5563 44.8023 16.003 45.0054 16.4362C45.3303 17.1266 45.8447 17.7222 46.508 18.1148C47.1849 18.4803 47.9565 18.6698 48.7281 18.6563C50.2984 18.6563 51.5033 18.0471 52.329 16.8153C53.1548 15.5834 53.5609 13.8777 53.5609 11.6847C53.5609 9.55933 53.1683 7.89425 52.3696 6.70298C51.5709 5.49817 50.3797 4.88899 48.8094 4.88899ZM49.1884 14.3244C48.7552 14.9607 48.0648 15.272 47.1307 15.272C46.7517 15.2856 46.3591 15.2179 46.0072 15.0554C45.6552 14.893 45.3438 14.6493 45.1137 14.3515C44.6264 13.7423 44.3827 12.903 44.3827 11.8336V11.5899C44.3827 10.5069 44.6264 9.68116 45.1137 9.1126C45.601 8.54404 46.2779 8.25976 47.1307 8.25976C48.0783 8.25976 48.7687 8.55757 49.2019 9.16675C49.6351 9.77592 49.8517 10.6152 49.8517 11.6982C49.8517 12.8218 49.6351 13.7017 49.1884 14.3244Z" fill="#B1B2B4"/>
<path d="M13.0716 15.0824H0.0488281V18.2772H13.0716V15.0824Z" fill="#B1B2B4"/>
</svg>
