<svg width="147" height="62" viewBox="0 0 147 62" fill="none" xmlns="http://www.w3.org/2000/svg">
<g clip-path="url(#clip0_523_685)">
<path d="M38.6321 12.7593H53.5164V15.5285H47.6639V31.0957H44.4457V15.5285H38.6191V12.7593H38.6321ZM52.8805 17.8189H55.6316V20.3811H55.6835C55.7743 20.0188 55.943 19.6694 56.1896 19.333C56.4361 18.9965 56.7346 18.673 57.085 18.4013C57.4353 18.1166 57.8246 17.8966 58.2529 17.7154C58.6811 17.5472 59.1223 17.4566 59.5635 17.4566C59.9009 17.4566 60.1475 17.4696 60.2772 17.4825C60.407 17.4954 60.5368 17.5213 60.6795 17.5343V20.3553C60.4719 20.3164 60.2643 20.2906 60.0437 20.2647C59.8231 20.2388 59.6154 20.2258 59.4078 20.2258C58.9147 20.2258 58.4475 20.3294 58.0063 20.5235C57.5651 20.7176 57.1888 21.0152 56.8644 21.3905C56.54 21.7787 56.2804 22.2445 56.0858 22.8139C55.8911 23.3833 55.8003 24.0303 55.8003 24.7679V31.0828H52.8675V17.8189H52.8805ZM74.1623 31.0957H71.2815V29.2453H71.2296C70.8662 29.9182 70.3342 30.4487 69.6205 30.8499C68.9067 31.251 68.18 31.4581 67.4404 31.4581C65.6885 31.4581 64.4168 31.031 63.6382 30.164C62.8596 29.297 62.4703 27.99 62.4703 26.2431V17.8189H65.403V25.9584C65.403 27.123 65.6236 27.9512 66.0778 28.43C66.519 28.9088 67.1549 29.1547 67.9594 29.1547C68.5823 29.1547 69.0884 29.0641 69.5037 28.87C69.9189 28.6759 70.2563 28.43 70.5029 28.1065C70.7624 27.7959 70.9441 27.4077 71.0609 26.9678C71.1777 26.5278 71.2296 26.049 71.2296 25.5314V17.8319H74.1623V31.0957ZM79.1583 26.8384C79.2492 27.6924 79.5736 28.2877 80.1316 28.6371C80.7026 28.9735 81.3773 29.1547 82.1689 29.1547C82.4414 29.1547 82.7529 29.1288 83.1032 29.09C83.4536 29.0512 83.791 28.9606 84.0895 28.8441C84.4009 28.7276 84.6475 28.5465 84.8551 28.3136C85.0498 28.0806 85.1406 27.783 85.1276 27.4077C85.1146 27.0325 84.9719 26.7219 84.7124 26.489C84.4528 26.2431 84.1284 26.0619 83.7261 25.9067C83.3239 25.7643 82.8697 25.6349 82.3506 25.5314C81.8315 25.4279 81.3125 25.3114 80.7804 25.1949C80.2354 25.0785 79.7034 24.9232 79.1973 24.755C78.6912 24.5867 78.237 24.3538 77.8347 24.0562C77.4324 23.7715 77.108 23.3962 76.8744 22.9433C76.6279 22.4904 76.5111 21.934 76.5111 21.2611C76.5111 20.5364 76.6928 19.9412 77.0431 19.4494C77.3935 18.9577 77.8477 18.5695 78.3797 18.2719C78.9248 17.9742 79.5217 17.7672 80.1835 17.6378C80.8453 17.5213 81.4812 17.4566 82.0781 17.4566C82.7659 17.4566 83.4277 17.5343 84.0505 17.6766C84.6734 17.8189 85.2444 18.0519 85.7505 18.3883C86.2566 18.7118 86.6718 19.1389 87.0092 19.6565C87.3466 20.1741 87.5543 20.8082 87.6451 21.5458H84.5826C84.4398 20.847 84.1284 20.3682 83.6223 20.1353C83.1162 19.8894 82.5323 19.7729 81.8834 19.7729C81.6758 19.7729 81.4293 19.7859 81.1438 19.8247C80.8583 19.8635 80.5987 19.9282 80.3392 20.0188C80.0927 20.1094 79.885 20.2517 79.7034 20.4329C79.5347 20.6141 79.4438 20.847 79.4438 21.1446C79.4438 21.5069 79.5736 21.7916 79.8201 22.0116C80.0667 22.2316 80.3911 22.4128 80.7934 22.568C81.1957 22.7104 81.6499 22.8398 82.1689 22.9433C82.688 23.0468 83.22 23.1633 83.7651 23.2798C84.2971 23.3962 84.8162 23.5515 85.3352 23.7197C85.8543 23.888 86.3085 24.1209 86.7108 24.4185C87.113 24.7161 87.4375 25.0785 87.684 25.5184C87.9306 25.9584 88.0603 26.5148 88.0603 27.1619C88.0603 27.9512 87.8787 28.6112 87.5153 29.1676C87.152 29.7111 86.6848 30.164 86.1138 30.5005C85.5429 30.8369 84.894 31.0957 84.1933 31.251C83.4925 31.4063 82.7918 31.4839 82.104 31.4839C81.2606 31.4839 80.482 31.3934 79.7682 31.1992C79.0545 31.0051 78.4316 30.7205 77.9126 30.3452C77.3935 29.957 76.9783 29.4782 76.6798 28.9088C76.3813 28.3394 76.2256 27.6536 76.1996 26.8642H79.1583V26.8384ZM88.8389 17.8189H91.058V13.8333H93.9907V17.8189H96.6379V20.0059H93.9907V27.0972C93.9907 27.4077 94.0037 27.6665 94.0296 27.8995C94.0556 28.1195 94.1205 28.3136 94.2113 28.4688C94.3021 28.6241 94.4449 28.7406 94.6395 28.8182C94.8342 28.8959 95.0807 28.9347 95.4181 28.9347C95.6258 28.9347 95.8334 28.9347 96.041 28.9218C96.2486 28.9088 96.4563 28.8829 96.6639 28.8312V31.0957C96.3395 31.1345 96.0151 31.1604 95.7166 31.1992C95.4052 31.2381 95.0937 31.251 94.7693 31.251C93.9907 31.251 93.3678 31.1734 92.9007 31.031C92.4335 30.8887 92.0572 30.6687 91.7976 30.384C91.5251 30.0993 91.3564 29.7499 91.2526 29.3229C91.1618 28.8959 91.0969 28.4041 91.0839 27.8606V20.0317H88.8649V17.8189H88.8389ZM98.7142 17.8189H101.491V19.6177H101.543C101.958 18.8412 102.529 18.2977 103.269 17.9613C104.009 17.6248 104.8 17.4566 105.67 17.4566C106.721 17.4566 107.629 17.6378 108.408 18.0131C109.186 18.3754 109.835 18.8801 110.354 19.5271C110.873 20.1741 111.25 20.9246 111.509 21.7787C111.769 22.6328 111.899 23.5515 111.899 24.522C111.899 25.4149 111.782 26.2819 111.548 27.1101C111.315 27.9512 110.964 28.6888 110.497 29.3358C110.03 29.9829 109.433 30.4875 108.706 30.8757C107.98 31.264 107.136 31.4581 106.15 31.4581C105.722 31.4581 105.293 31.4192 104.865 31.3416C104.437 31.264 104.022 31.1345 103.632 30.9663C103.243 30.7981 102.867 30.5781 102.542 30.3064C102.205 30.0346 101.932 29.7241 101.699 29.3747H101.647V36.0001H98.7142V17.8189ZM108.966 24.4703C108.966 23.875 108.888 23.2927 108.732 22.7233C108.577 22.154 108.343 21.6622 108.031 21.2223C107.72 20.7823 107.331 20.4329 106.877 20.1741C106.409 19.9153 105.877 19.7729 105.28 19.7729C104.048 19.7729 103.113 20.2 102.49 21.054C101.868 21.9081 101.556 23.0468 101.556 24.4703C101.556 25.1432 101.634 25.7643 101.803 26.3337C101.971 26.9031 102.205 27.3948 102.542 27.8089C102.867 28.223 103.256 28.5465 103.71 28.7794C104.164 29.0253 104.696 29.1417 105.293 29.1417C105.968 29.1417 106.526 28.9994 106.993 28.7276C107.461 28.4559 107.837 28.0936 108.135 27.6665C108.434 27.2266 108.654 26.7348 108.784 26.1784C108.901 25.622 108.966 25.0526 108.966 24.4703ZM114.144 12.7593H117.076V15.5285H114.144V12.7593ZM114.144 17.8189H117.076V31.0957H114.144V17.8189ZM119.698 12.7593H122.63V31.0957H119.698V12.7593ZM131.623 31.4581C130.559 31.4581 129.612 31.2769 128.781 30.9275C127.951 30.5781 127.25 30.0864 126.666 29.4782C126.095 28.857 125.654 28.1194 125.355 27.2654C125.057 26.4113 124.901 25.4667 124.901 24.4444C124.901 23.4351 125.057 22.5033 125.355 21.6493C125.654 20.7952 126.095 20.0576 126.666 19.4365C127.237 18.8154 127.951 18.3366 128.781 17.9872C129.612 17.6378 130.559 17.4566 131.623 17.4566C132.687 17.4566 133.634 17.6378 134.465 17.9872C135.296 18.3366 135.996 18.8283 136.58 19.4365C137.151 20.0576 137.592 20.7952 137.891 21.6493C138.189 22.5033 138.345 23.4351 138.345 24.4444C138.345 25.4667 138.189 26.4113 137.891 27.2654C137.592 28.1194 137.151 28.857 136.58 29.4782C136.009 30.0993 135.296 30.5781 134.465 30.9275C133.634 31.2769 132.687 31.4581 131.623 31.4581ZM131.623 29.1417C132.272 29.1417 132.843 28.9994 133.323 28.7276C133.803 28.4559 134.192 28.0936 134.504 27.6536C134.815 27.2136 135.036 26.709 135.192 26.1525C135.334 25.5961 135.412 25.0267 135.412 24.4444C135.412 23.875 135.334 23.3186 135.192 22.7492C135.049 22.1798 134.815 21.6881 134.504 21.2481C134.192 20.8082 133.803 20.4588 133.323 20.187C132.843 19.9153 132.272 19.7729 131.623 19.7729C130.974 19.7729 130.403 19.9153 129.923 20.187C129.443 20.4588 129.054 20.8211 128.742 21.2481C128.431 21.6881 128.21 22.1798 128.055 22.7492C127.912 23.3186 127.834 23.875 127.834 24.4444C127.834 25.0267 127.912 25.5961 128.055 26.1525C128.197 26.709 128.431 27.2136 128.742 27.6536C129.054 28.0936 129.443 28.4559 129.923 28.7276C130.403 29.0123 130.974 29.1417 131.623 29.1417ZM139.201 17.8189H141.421V13.8333H144.353V17.8189H147V20.0059H144.353V27.0972C144.353 27.4077 144.366 27.6665 144.392 27.8995C144.418 28.1195 144.483 28.3136 144.574 28.4688C144.665 28.6241 144.807 28.7406 145.002 28.8182C145.197 28.8959 145.443 28.9347 145.781 28.9347C145.988 28.9347 146.196 28.9347 146.404 28.9218C146.611 28.9088 146.819 28.8829 147.026 28.8312V31.0957C146.702 31.1345 146.378 31.1604 146.079 31.1992C145.768 31.2381 145.456 31.251 145.132 31.251C144.353 31.251 143.73 31.1734 143.263 31.031C142.796 30.8887 142.42 30.6687 142.16 30.384C141.888 30.0993 141.719 29.7499 141.615 29.3229C141.524 28.8959 141.459 28.4041 141.446 27.8606V20.0317H139.227V17.8189H139.201Z" fill="#191919"/>
<path d="M35.2058 12.7592H21.7619L17.6094 0L13.4439 12.7592L0 12.7462L10.8874 20.6398L6.72193 33.3861L17.6094 25.5054L28.4838 33.3861L24.3313 20.6398L35.2058 12.7592Z" fill="#00B67A"/>
<path d="M25.2656 23.5256L24.3313 20.6399L17.6094 25.5055L25.2656 23.5256Z" fill="#005128"/>
</g>
<path d="M13.6188 57.6989V55.5192L19.084 46.9091H20.9632V49.9261H19.851L16.4057 55.3786V55.4808H24.1721V57.6989H13.6188ZM19.9022 60V57.0341L19.9533 56.0689V46.9091H22.5485V60H19.9022ZM27.3873 60.1662C26.9654 60.1662 26.6032 60.017 26.3006 59.7188C26.0023 59.4162 25.8532 59.054 25.8532 58.6321C25.8532 58.2145 26.0023 57.8565 26.3006 57.5582C26.6032 57.2599 26.9654 57.1108 27.3873 57.1108C27.7963 57.1108 28.1543 57.2599 28.4611 57.5582C28.7679 57.8565 28.9213 58.2145 28.9213 58.6321C28.9213 58.9134 28.8489 59.1712 28.704 59.4055C28.5634 59.6357 28.378 59.821 28.1479 59.9616C27.9178 60.098 27.6642 60.1662 27.3873 60.1662ZM35.4876 60.179C34.5032 60.179 33.6275 60.0192 32.8604 59.6996C32.0977 59.3757 31.4989 58.9347 31.0643 58.3764C30.6296 57.8182 30.4123 57.1854 30.4123 56.478C30.4123 55.9325 30.5359 55.4318 30.783 54.9759C31.0344 54.5156 31.3754 54.1342 31.8058 53.8317C32.2362 53.5249 32.7177 53.3288 33.2504 53.2436V53.1541C32.5515 53.0135 31.9847 52.6747 31.5501 52.1378C31.1154 51.5966 30.8981 50.968 30.8981 50.2521C30.8981 49.5746 31.0962 48.9716 31.4925 48.4432C31.8888 47.9105 32.4322 47.4929 33.1225 47.1903C33.8171 46.8835 34.6055 46.7301 35.4876 46.7301C36.3697 46.7301 37.1559 46.8835 37.8462 47.1903C38.5408 47.4972 39.0863 47.9169 39.4826 48.4496C39.8789 48.978 40.0792 49.5788 40.0835 50.2521C40.0792 50.9723 39.8576 51.6009 39.4187 52.1378C38.9798 52.6747 38.4173 53.0135 37.7312 53.1541V53.2436C38.2553 53.3288 38.7305 53.5249 39.1566 53.8317C39.587 54.1342 39.9279 54.5156 40.1793 54.9759C40.435 55.4318 40.565 55.9325 40.5692 56.478C40.565 57.1854 40.3455 57.8182 39.9109 58.3764C39.4762 58.9347 38.8754 59.3757 38.1083 59.6996C37.3455 60.0192 36.4719 60.179 35.4876 60.179ZM35.4876 58.1463C35.9265 58.1463 36.31 58.0675 36.6381 57.9098C36.9663 57.7479 37.2219 57.5263 37.4052 57.245C37.5927 56.9595 37.6864 56.6314 37.6864 56.2607C37.6864 55.8814 37.5906 55.5469 37.3988 55.2571C37.207 54.9631 36.9471 54.733 36.619 54.5668C36.2908 54.3963 35.9137 54.3111 35.4876 54.3111C35.0657 54.3111 34.6886 54.3963 34.3562 54.5668C34.0238 54.733 33.7617 54.9631 33.57 55.2571C33.3825 55.5469 33.2887 55.8814 33.2887 56.2607C33.2887 56.6314 33.3803 56.9595 33.5636 57.245C33.7468 57.5263 34.0046 57.7479 34.337 57.9098C34.6694 58.0675 35.0529 58.1463 35.4876 58.1463ZM35.4876 52.2976C35.854 52.2976 36.18 52.223 36.4656 52.0739C36.7511 51.9247 36.9748 51.718 37.1367 51.4538C37.2987 51.1896 37.3796 50.8849 37.3796 50.5398C37.3796 50.1989 37.2987 49.9006 37.1367 49.6449C36.9748 49.3849 36.7532 49.1825 36.4719 49.0376C36.1907 48.8885 35.8626 48.8139 35.4876 48.8139C35.1168 48.8139 34.7887 48.8885 34.5032 49.0376C34.2177 49.1825 33.994 49.3849 33.832 49.6449C33.6744 49.9006 33.5955 50.1989 33.5955 50.5398C33.5955 50.8849 33.6765 51.1896 33.8384 51.4538C34.0004 51.718 34.2241 51.9247 34.5096 52.0739C34.7951 52.223 35.1211 52.2976 35.4876 52.2976Z" fill="#0F172A"/>
<g clip-path="url(#clip1_523_685)">
<path d="M49.5996 45.0042H65.4996V60.9956H49.5996V45.0042ZM66.8246 45.0042H82.7246V60.9956H66.8246V45.0042ZM84.0496 45.0042H99.9496V60.9956H84.0496V45.0042ZM101.275 45.0042H117.175V60.9956H101.275V45.0042ZM118.5 45.0042H134.4V60.9956H118.5V45.0042Z" fill="#00B67A"/>
<path d="M57.5494 55.7817L59.9675 55.1653L60.9778 58.297L57.5494 55.7817ZM63.1144 51.7338H58.8578L57.5494 47.7026L56.2409 51.7338H51.9844L55.4294 54.2325L54.1209 58.2637L57.5659 55.765L59.6859 54.2325L63.1144 51.7338ZM74.7744 55.7817L77.1925 55.1653L78.2028 58.297L74.7744 55.7817ZM80.3394 51.7338H76.0828L74.7744 47.7026L73.4659 51.7338H69.2094L72.6544 54.2325L71.3459 58.2637L74.7909 55.765L76.9109 54.2325L80.3394 51.7338ZM91.9994 55.7817L94.4175 55.1653L95.4278 58.297L91.9994 55.7817ZM97.5644 51.7338H93.3078L91.9994 47.7026L90.6909 51.7338H86.4344L89.8794 54.2325L88.5709 58.2637L92.0159 55.765L94.1359 54.2325L97.5644 51.7338ZM109.224 55.7817L111.643 55.1653L112.653 58.297L109.224 55.7817ZM114.789 51.7338H110.533L109.224 47.7026L107.916 51.7338H103.659L107.104 54.2325L105.796 58.2637L109.241 55.765L111.361 54.2325L114.789 51.7338ZM126.449 55.7817L128.868 55.1653L129.878 58.297L126.449 55.7817ZM132.014 51.7338H127.758L126.449 47.7026L125.141 51.7338H120.884L124.329 54.2325L123.021 58.2637L126.466 55.765L128.586 54.2325L132.014 51.7338Z" fill="white"/>
</g>
<defs>
<clipPath id="clip0_523_685">
<rect width="147" height="36" fill="white"/>
</clipPath>
<clipPath id="clip1_523_685">
<rect width="84.8" height="16" fill="white" transform="translate(49.5996 45)"/>
</clipPath>
</defs>
</svg>
