<svg width="118" height="62" viewBox="0 0 118 62" fill="none" xmlns="http://www.w3.org/2000/svg">
<path d="M52.209 18.8159C52.209 23.2869 48.7171 26.5815 44.4316 26.5815C40.1462 26.5815 36.6543 23.2869 36.6543 18.8159C36.6543 14.3134 40.1462 11.0503 44.4316 11.0503C48.7171 11.0503 52.209 14.3134 52.209 18.8159ZM48.8044 18.8159C48.8044 16.022 46.7806 14.1103 44.4316 14.1103C42.0827 14.1103 40.0589 16.022 40.0589 18.8159C40.0589 21.5818 42.0827 23.5215 44.4316 23.5215C46.7806 23.5215 48.8044 21.5783 48.8044 18.8159Z" fill="#EA4335"/>
<path d="M68.9863 18.8159C68.9863 23.2869 65.4944 26.5815 61.209 26.5815C56.9236 26.5815 53.4316 23.2869 53.4316 18.8159C53.4316 14.3169 56.9236 11.0503 61.209 11.0503C65.4944 11.0503 68.9863 14.3134 68.9863 18.8159ZM65.5818 18.8159C65.5818 16.022 63.5579 14.1103 61.209 14.1103C58.8601 14.1103 56.8362 16.022 56.8362 18.8159C56.8362 21.5818 58.8601 23.5215 61.209 23.5215C63.5579 23.5215 65.5818 21.5783 65.5818 18.8159Z" fill="#FBBC05"/>
<path d="M85.0657 11.5195V25.4611C85.0657 31.196 81.6891 33.5383 77.6973 33.5383C73.9397 33.5383 71.6782 31.021 70.8253 28.9623L73.7894 27.7264C74.3173 28.9903 75.6106 30.4818 77.6939 30.4818C80.249 30.4818 81.8325 28.9028 81.8325 25.9303V24.8134H81.7136C80.9516 25.7552 79.4835 26.578 77.6309 26.578C73.7545 26.578 70.2031 23.1959 70.2031 18.8439C70.2031 14.4604 73.7545 11.0503 77.6309 11.0503C79.48 11.0503 80.9481 11.8731 81.7136 12.7869H81.8325V11.523H85.0657V11.5195ZM82.0736 18.8439C82.0736 16.1095 80.2525 14.1103 77.935 14.1103C75.5861 14.1103 73.6182 16.1095 73.6182 18.8439C73.6182 21.5503 75.5861 23.5215 77.935 23.5215C80.2525 23.5215 82.0736 21.5503 82.0736 18.8439Z" fill="#4285F4"/>
<path d="M90.3968 3.34766V26.1053H87.0762V3.34766H90.3968Z" fill="#34A853"/>
<path d="M103.337 21.3716L105.979 23.1362C105.126 24.4001 103.071 26.5778 99.5196 26.5778C95.1154 26.5778 91.8262 23.1677 91.8262 18.8122C91.8262 14.1942 95.1433 11.0466 99.1386 11.0466C103.162 11.0466 105.13 14.2537 105.773 15.9868L106.126 16.8691L95.762 21.1685C96.5555 22.7265 97.7894 23.5213 99.5196 23.5213C101.253 23.5213 102.456 22.667 103.337 21.3716ZM95.2028 18.5777L102.131 15.6962C101.75 14.7264 100.603 14.0506 99.254 14.0506C97.5237 14.0506 95.1154 15.5806 95.2028 18.5777Z" fill="#EA4335"/>
<path d="M24.0846 16.7957V13.5011H35.1686C35.277 14.0753 35.3329 14.7545 35.3329 15.4898C35.3329 17.9616 34.6583 21.0181 32.4841 23.1959C30.3694 25.4016 27.6674 26.578 24.0881 26.578C17.4537 26.578 11.875 21.1652 11.875 14.5199C11.875 7.87473 17.4537 2.46191 24.0881 2.46191C27.7583 2.46191 30.3729 3.9044 32.3373 5.78453L30.0163 8.1093C28.6077 6.78586 26.6992 5.75652 24.0846 5.75652C19.2399 5.75652 15.4508 9.66733 15.4508 14.5199C15.4508 19.3726 19.2399 23.2834 24.0846 23.2834C27.227 23.2834 29.0166 22.0195 30.1631 20.8711C31.0929 19.9398 31.7046 18.6093 31.9458 16.7922L24.0846 16.7957Z" fill="#4285F4"/>
<path d="M0.88734 57.6989V55.5192L6.35254 46.9091H8.2318V49.9261H7.11958L3.67427 55.3786V55.4808H11.4406V57.6989H0.88734ZM7.17072 60V57.0341L7.22186 56.0689V46.9091H9.81703V60H7.17072ZM14.6558 60.1662C14.2339 60.1662 13.8717 60.017 13.5692 59.7188C13.2709 59.4162 13.1217 59.054 13.1217 58.6321C13.1217 58.2145 13.2709 57.8565 13.5692 57.5582C13.8717 57.2599 14.2339 57.1108 14.6558 57.1108C15.0649 57.1108 15.4229 57.2599 15.7297 57.5582C16.0365 57.8565 16.1899 58.2145 16.1899 58.6321C16.1899 58.9134 16.1175 59.1712 15.9726 59.4055C15.8319 59.6357 15.6466 59.821 15.4165 59.9616C15.1863 60.098 14.9328 60.1662 14.6558 60.1662ZM22.8904 46.7301C23.5637 46.7301 24.2114 46.843 24.8335 47.0689C25.46 47.2947 26.0182 47.6548 26.5083 48.1491C27.0026 48.6435 27.3925 49.2997 27.678 50.1179C27.9678 50.9318 28.1148 51.9311 28.1191 53.1158C28.1191 54.228 27.9933 55.2209 27.7419 56.0945C27.4948 56.9638 27.1389 57.7031 26.6745 58.3125C26.21 58.9219 25.6496 59.3864 24.9933 59.706C24.3371 60.0213 23.6041 60.179 22.7945 60.179C21.9209 60.179 21.1496 60.0107 20.4806 59.674C19.8115 59.3331 19.2725 58.8707 18.8634 58.2869C18.4585 57.6989 18.2135 57.0384 18.1283 56.3054H20.8577C20.9642 56.7827 21.1879 57.1534 21.5289 57.4176C21.8698 57.6776 22.2916 57.8075 22.7945 57.8075C23.6468 57.8075 24.2945 57.4368 24.7377 56.6953C25.1808 55.9496 25.4046 54.929 25.4088 53.6335H25.3193C25.1233 54.017 24.8591 54.3473 24.5267 54.6243C24.1943 54.897 23.8129 55.108 23.3825 55.2571C22.9564 55.4062 22.5026 55.4808 22.021 55.4808C21.2497 55.4808 20.5615 55.2997 19.9564 54.9375C19.3513 54.5753 18.874 54.0767 18.5246 53.4418C18.1752 52.8068 18.0004 52.0824 18.0004 51.2685C17.9962 50.3906 18.1986 49.6087 18.6077 48.9226C19.0168 48.2365 19.5878 47.6996 20.3208 47.3118C21.058 46.9197 21.9145 46.7259 22.8904 46.7301ZM22.9095 48.9034C22.4791 48.9034 22.0956 49.0057 21.759 49.2102C21.4266 49.4148 21.1624 49.6896 20.9664 50.0348C20.7746 50.38 20.6808 50.7656 20.6851 51.1918C20.6851 51.6222 20.7789 52.0099 20.9664 52.3551C21.1581 52.696 21.4181 52.9687 21.7462 53.1733C22.0786 53.3736 22.4578 53.4737 22.884 53.4737C23.2036 53.4737 23.4997 53.4141 23.7725 53.2947C24.0452 53.1754 24.2817 53.0114 24.482 52.8026C24.6865 52.5895 24.8463 52.3445 24.9614 52.0675C25.0764 51.7905 25.134 51.4964 25.134 51.1854C25.1297 50.772 25.0317 50.3928 24.8399 50.0476C24.6482 49.7024 24.384 49.4254 24.0473 49.2166C23.7107 49.0078 23.3314 48.9034 22.9095 48.9034Z" fill="#0F172A"/>
<path d="M44.5245 46.4635C44.6741 46.0029 45.3259 46.0029 45.4755 46.4635L46.6839 50.1824C46.7508 50.3884 46.9428 50.5279 47.1594 50.5279H51.0696C51.554 50.5279 51.7554 51.1477 51.3635 51.4324L48.2001 53.7307C48.0248 53.8581 47.9515 54.0838 48.0184 54.2898L49.2268 58.0086C49.3764 58.4693 48.8492 58.8523 48.4573 58.5676L45.2939 56.2693C45.1186 56.1419 44.8814 56.1419 44.7061 56.2693L41.5427 58.5676C41.1508 58.8523 40.6236 58.4693 40.7732 58.0086L41.9816 54.2898C42.0485 54.0838 41.9752 53.8581 41.7999 53.7307L38.6365 51.4324C38.2446 51.1477 38.446 50.5279 38.9304 50.5279H42.8406C43.0572 50.5279 43.2492 50.3884 43.3161 50.1824L44.5245 46.4635Z" fill="#FFB151"/>
<path d="M60.5245 46.4635C60.6741 46.0029 61.3259 46.0029 61.4755 46.4635L62.6839 50.1824C62.7508 50.3884 62.9428 50.5279 63.1594 50.5279H67.0696C67.554 50.5279 67.7554 51.1477 67.3635 51.4324L64.2001 53.7307C64.0248 53.8581 63.9515 54.0838 64.0184 54.2898L65.2268 58.0086C65.3764 58.4693 64.8492 58.8523 64.4573 58.5676L61.2939 56.2693C61.1186 56.1419 60.8814 56.1419 60.7061 56.2693L57.5427 58.5676C57.1508 58.8523 56.6236 58.4693 56.7732 58.0086L57.9816 54.2898C58.0485 54.0838 57.9752 53.8581 57.7999 53.7307L54.6365 51.4324C54.2446 51.1477 54.446 50.5279 54.9304 50.5279H58.8406C59.0572 50.5279 59.2492 50.3884 59.3161 50.1824L60.5245 46.4635Z" fill="#FFB151"/>
<path d="M76.5245 46.4635C76.6741 46.0029 77.3259 46.0029 77.4755 46.4635L78.6839 50.1824C78.7508 50.3884 78.9428 50.5279 79.1594 50.5279H83.0696C83.554 50.5279 83.7554 51.1477 83.3635 51.4324L80.2001 53.7307C80.0248 53.8581 79.9515 54.0838 80.0184 54.2898L81.2268 58.0086C81.3764 58.4693 80.8492 58.8523 80.4573 58.5676L77.2939 56.2693C77.1186 56.1419 76.8814 56.1419 76.7061 56.2693L73.5427 58.5676C73.1508 58.8523 72.6236 58.4693 72.7732 58.0086L73.9816 54.2898C74.0485 54.0838 73.9752 53.8581 73.7999 53.7307L70.6365 51.4324C70.2446 51.1477 70.446 50.5279 70.9304 50.5279H74.8406C75.0572 50.5279 75.2492 50.3884 75.3161 50.1824L76.5245 46.4635Z" fill="#FFB151"/>
<path d="M92.5245 46.4635C92.6741 46.0029 93.3259 46.0029 93.4755 46.4635L94.6839 50.1824C94.7508 50.3884 94.9428 50.5279 95.1594 50.5279H99.0696C99.554 50.5279 99.7554 51.1477 99.3635 51.4324L96.2001 53.7307C96.0248 53.8581 95.9515 54.0838 96.0184 54.2898L97.2268 58.0086C97.3764 58.4693 96.8492 58.8523 96.4573 58.5676L93.2939 56.2693C93.1186 56.1419 92.8814 56.1419 92.7061 56.2693L89.5427 58.5676C89.1508 58.8523 88.6236 58.4693 88.7732 58.0086L89.9816 54.2898C90.0485 54.0838 89.9752 53.8581 89.7999 53.7307L86.6365 51.4324C86.2446 51.1477 86.446 50.5279 86.9304 50.5279H90.8406C91.0572 50.5279 91.2492 50.3884 91.3161 50.1824L92.5245 46.4635Z" fill="#FFB151"/>
<path d="M108.524 46.4635C108.674 46.0029 109.326 46.0029 109.476 46.4635L110.684 50.1824C110.751 50.3884 110.943 50.5279 111.159 50.5279H115.07C115.554 50.5279 115.755 51.1477 115.364 51.4324L112.2 53.7307C112.025 53.8581 111.951 54.0838 112.018 54.2898L113.227 58.0086C113.376 58.4693 112.849 58.8523 112.457 58.5676L109.294 56.2693C109.119 56.1419 108.881 56.1419 108.706 56.2693L105.543 58.5676C105.151 58.8523 104.624 58.4693 104.773 58.0086L105.982 54.2898C106.049 54.0838 105.975 53.8581 105.8 53.7307L102.636 51.4324C102.245 51.1477 102.446 50.5279 102.93 50.5279H106.841C107.057 50.5279 107.249 50.3884 107.316 50.1824L108.524 46.4635Z" fill="#FFB151"/>
</svg>
