<svg width="117" height="60" viewBox="0 0 117 60" fill="none" xmlns="http://www.w3.org/2000/svg">
<g clip-path="url(#clip0_523_697)">
<path d="M65.3501 23.3513C66.4741 25.3257 67.5856 27.2778 68.6963 29.2278C63.7781 33.0393 56.1263 33.4999 50.4619 29.1106C43.9433 24.0555 42.8719 15.43 46.3619 9.22103C50.3758 2.07935 57.8872 0.49993 62.7234 1.65806C62.5926 1.94569 59.6961 8.02863 59.6961 8.02863C59.6961 8.02863 59.4671 8.04386 59.3375 8.0464C57.9081 8.10773 56.8434 8.44443 55.7022 9.04168C54.4502 9.70301 53.3772 10.6647 52.5772 11.8427C51.7771 13.0207 51.2742 14.3791 51.1125 15.7993C50.9437 17.2395 51.1405 18.6995 51.6841 20.0414C52.1437 21.1758 52.7939 22.1834 53.6656 23.034C55.0027 24.3402 56.5939 25.1489 58.4383 25.4167C60.185 25.6705 61.8647 25.4192 63.4388 24.6185C64.0292 24.3186 64.5315 23.9874 65.1186 23.5331C65.1934 23.4841 65.2598 23.4219 65.3501 23.3513Z" fill="#FF492C"/>
<path d="M65.3617 6.03472C65.0763 5.75048 64.8118 5.48822 64.5486 5.22428C64.3914 5.06693 64.2402 4.90324 64.0793 4.74969C64.0216 4.69428 63.9539 4.61857 63.9539 4.61857C63.9539 4.61857 64.0087 4.50098 64.0321 4.45276C64.34 3.82716 64.8227 3.36992 65.3951 3.00615C66.0282 2.60084 66.7657 2.39462 67.5145 2.41355C68.4726 2.43258 69.3635 2.67411 70.1152 3.32466C70.6701 3.80475 70.9547 4.41384 71.0048 5.14095C71.0884 6.36761 70.587 7.30706 69.5912 7.96269C69.0062 8.34845 68.3753 8.64665 67.7426 8.99984C67.3937 9.19484 67.0954 9.36615 66.7544 9.71892C66.4544 10.073 66.4398 10.4067 66.4398 10.4067L70.9722 10.4008V12.4442H63.9761V12.2467C63.9493 11.2425 64.0651 10.2976 64.5193 9.38561C64.9372 8.54894 65.5865 7.93646 66.3666 7.46483C66.9675 7.10149 67.6002 6.79229 68.2023 6.43064C68.5738 6.20772 68.8362 5.88076 68.8341 5.40659C68.8341 4.99968 68.5416 4.63803 68.1237 4.52509C67.1384 4.25607 66.1356 4.6854 65.6141 5.5982C65.538 5.73144 65.4603 5.86384 65.3617 6.03472ZM74.1287 21.1793L70.3091 14.502H62.7505L58.9062 21.2482H66.5204L70.2778 27.8937L74.1287 21.1793Z" fill="#FF492C"/>
</g>
<path d="M0.88734 55.1989V53.0192L6.35254 44.4091H8.2318V47.4261H7.11958L3.67427 52.8786V52.9808H11.4406V55.1989H0.88734ZM7.17072 57.5V54.5341L7.22186 53.5689V44.4091H9.81703V57.5H7.17072ZM14.6558 57.6662C14.2339 57.6662 13.8717 57.517 13.5692 57.2188C13.2709 56.9162 13.1217 56.554 13.1217 56.1321C13.1217 55.7145 13.2709 55.3565 13.5692 55.0582C13.8717 54.7599 14.2339 54.6108 14.6558 54.6108C15.0649 54.6108 15.4229 54.7599 15.7297 55.0582C16.0365 55.3565 16.1899 55.7145 16.1899 56.1321C16.1899 56.4134 16.1175 56.6712 15.9726 56.9055C15.8319 57.1357 15.6466 57.321 15.4165 57.4616C15.1863 57.598 14.9328 57.6662 14.6558 57.6662ZM22.8904 44.2301C23.5637 44.2301 24.2114 44.343 24.8335 44.5689C25.46 44.7947 26.0182 45.1548 26.5083 45.6491C27.0026 46.1435 27.3925 46.7997 27.678 47.6179C27.9678 48.4318 28.1148 49.4311 28.1191 50.6158C28.1191 51.728 27.9933 52.7209 27.7419 53.5945C27.4948 54.4638 27.1389 55.2031 26.6745 55.8125C26.21 56.4219 25.6496 56.8864 24.9933 57.206C24.3371 57.5213 23.6041 57.679 22.7945 57.679C21.9209 57.679 21.1496 57.5107 20.4806 57.174C19.8115 56.8331 19.2725 56.3707 18.8634 55.7869C18.4585 55.1989 18.2135 54.5384 18.1283 53.8054H20.8577C20.9642 54.2827 21.1879 54.6534 21.5289 54.9176C21.8698 55.1776 22.2916 55.3075 22.7945 55.3075C23.6468 55.3075 24.2945 54.9368 24.7377 54.1953C25.1808 53.4496 25.4046 52.429 25.4088 51.1335H25.3193C25.1233 51.517 24.8591 51.8473 24.5267 52.1243C24.1943 52.397 23.8129 52.608 23.3825 52.7571C22.9564 52.9062 22.5026 52.9808 22.021 52.9808C21.2497 52.9808 20.5615 52.7997 19.9564 52.4375C19.3513 52.0753 18.874 51.5767 18.5246 50.9418C18.1752 50.3068 18.0004 49.5824 18.0004 48.7685C17.9962 47.8906 18.1986 47.1087 18.6077 46.4226C19.0168 45.7365 19.5878 45.1996 20.3208 44.8118C21.058 44.4197 21.9145 44.2259 22.8904 44.2301ZM22.9095 46.4034C22.4791 46.4034 22.0956 46.5057 21.759 46.7102C21.4266 46.9148 21.1624 47.1896 20.9664 47.5348C20.7746 47.88 20.6808 48.2656 20.6851 48.6918C20.6851 49.1222 20.7789 49.5099 20.9664 49.8551C21.1581 50.196 21.4181 50.4687 21.7462 50.6733C22.0786 50.8736 22.4578 50.9737 22.884 50.9737C23.2036 50.9737 23.4997 50.9141 23.7725 50.7947C24.0452 50.6754 24.2817 50.5114 24.482 50.3026C24.6865 50.0895 24.8463 49.8445 24.9614 49.5675C25.0764 49.2905 25.134 48.9964 25.134 48.6854C25.1297 48.272 25.0317 47.8928 24.8399 47.5476C24.6482 47.2024 24.384 46.9254 24.0473 46.7166C23.7107 46.5078 23.3314 46.4034 22.9095 46.4034Z" fill="#0F172A"/>
<path d="M44.5245 43.9635C44.6741 43.5029 45.3259 43.5029 45.4755 43.9635L46.6839 47.6824C46.7508 47.8884 46.9428 48.0279 47.1594 48.0279H51.0696C51.554 48.0279 51.7554 48.6477 51.3635 48.9324L48.2001 51.2307C48.0248 51.3581 47.9515 51.5838 48.0184 51.7898L49.2268 55.5086C49.3764 55.9693 48.8492 56.3523 48.4573 56.0676L45.2939 53.7693C45.1186 53.6419 44.8814 53.6419 44.7061 53.7693L41.5427 56.0676C41.1508 56.3523 40.6236 55.9693 40.7732 55.5086L41.9816 51.7898C42.0485 51.5838 41.9752 51.3581 41.7999 51.2307L38.6365 48.9324C38.2446 48.6477 38.446 48.0279 38.9304 48.0279H42.8406C43.0572 48.0279 43.2492 47.8884 43.3161 47.6824L44.5245 43.9635Z" fill="#FFB151"/>
<path d="M60.5245 43.9635C60.6741 43.5029 61.3259 43.5029 61.4755 43.9635L62.6839 47.6824C62.7508 47.8884 62.9428 48.0279 63.1594 48.0279H67.0696C67.554 48.0279 67.7554 48.6477 67.3635 48.9324L64.2001 51.2307C64.0248 51.3581 63.9515 51.5838 64.0184 51.7898L65.2268 55.5086C65.3764 55.9693 64.8492 56.3523 64.4573 56.0676L61.2939 53.7693C61.1186 53.6419 60.8814 53.6419 60.7061 53.7693L57.5427 56.0676C57.1508 56.3523 56.6236 55.9693 56.7732 55.5086L57.9816 51.7898C58.0485 51.5838 57.9752 51.3581 57.7999 51.2307L54.6365 48.9324C54.2446 48.6477 54.446 48.0279 54.9304 48.0279H58.8406C59.0572 48.0279 59.2492 47.8884 59.3161 47.6824L60.5245 43.9635Z" fill="#FFB151"/>
<path d="M76.5245 43.9635C76.6741 43.5029 77.3259 43.5029 77.4755 43.9635L78.6839 47.6824C78.7508 47.8884 78.9428 48.0279 79.1594 48.0279H83.0696C83.554 48.0279 83.7554 48.6477 83.3635 48.9324L80.2001 51.2307C80.0248 51.3581 79.9515 51.5838 80.0184 51.7898L81.2268 55.5086C81.3764 55.9693 80.8492 56.3523 80.4573 56.0676L77.2939 53.7693C77.1186 53.6419 76.8814 53.6419 76.7061 53.7693L73.5427 56.0676C73.1508 56.3523 72.6236 55.9693 72.7732 55.5086L73.9816 51.7898C74.0485 51.5838 73.9752 51.3581 73.7999 51.2307L70.6365 48.9324C70.2446 48.6477 70.446 48.0279 70.9304 48.0279H74.8406C75.0572 48.0279 75.2492 47.8884 75.3161 47.6824L76.5245 43.9635Z" fill="#FFB151"/>
<path d="M92.5245 43.9635C92.6741 43.5029 93.3259 43.5029 93.4755 43.9635L94.6839 47.6824C94.7508 47.8884 94.9428 48.0279 95.1594 48.0279H99.0696C99.554 48.0279 99.7554 48.6477 99.3635 48.9324L96.2001 51.2307C96.0248 51.3581 95.9515 51.5838 96.0184 51.7898L97.2268 55.5086C97.3764 55.9693 96.8492 56.3523 96.4573 56.0676L93.2939 53.7693C93.1186 53.6419 92.8814 53.6419 92.7061 53.7693L89.5427 56.0676C89.1508 56.3523 88.6236 55.9693 88.7732 55.5086L89.9816 51.7898C90.0485 51.5838 89.9752 51.3581 89.7999 51.2307L86.6365 48.9324C86.2446 48.6477 86.446 48.0279 86.9304 48.0279H90.8406C91.0572 48.0279 91.2492 47.8884 91.3161 47.6824L92.5245 43.9635Z" fill="#FFB151"/>
<path d="M108.524 43.9635C108.674 43.5029 109.326 43.5029 109.476 43.9635L110.684 47.6824C110.751 47.8884 110.943 48.0279 111.159 48.0279H115.07C115.554 48.0279 115.755 48.6477 115.364 48.9324L112.2 51.2307C112.025 51.3581 111.951 51.5838 112.018 51.7898L113.227 55.5086C113.376 55.9693 112.849 56.3523 112.457 56.0676L109.294 53.7693C109.119 53.6419 108.881 53.6419 108.706 53.7693L105.543 56.0676C105.151 56.3523 104.624 55.9693 104.773 55.5086L105.982 51.7898C106.049 51.5838 105.975 51.3581 105.8 51.2307L102.636 48.9324C102.245 48.6477 102.446 48.0279 102.93 48.0279H106.841C107.057 48.0279 107.249 47.8884 107.316 47.6824L108.524 43.9635Z" fill="#FFB151"/>
<defs>
<clipPath id="clip0_523_697">
<rect width="32" height="33" fill="white" transform="translate(42.5 0.5)"/>
</clipPath>
</defs>
</svg>
