<svg width="100" height="22" viewBox="0 0 100 22" fill="none" xmlns="http://www.w3.org/2000/svg">
<g clip-path="url(#clip0_678_189)">
<path d="M11.8048 -0.00152155C5.72934 -0.00152155 0.804688 4.9244 0.804688 10.9986C0.804688 17.0753 5.72934 22 11.8048 22C17.8803 22 22.8049 17.0753 22.8049 10.9986C22.8049 4.9244 17.8803 -0.00152155 11.8048 -0.00152155Z" fill="white"/>
<path d="M36.002 15.4723L34.5997 12.6041H32.8163L34.4943 9.0221L38.7228 17.5796H42.6631L35.7873 4.47978H33.1885L26.5693 17.577L30.4981 17.5783L31.4889 15.4723H36.002Z" fill="#B1B2B4"/>
<path d="M56.804 12.8609C58.8249 12.2321 59.7751 10.7015 59.7751 8.83556C59.7751 6.44881 58.1403 4.51299 54.7755 4.51299H47.9785V17.6128L51.1299 17.6115L51.1287 7.27953H54.9914C56.1346 7.28207 56.6097 7.98578 56.6097 8.82793C56.6097 9.67009 56.1105 10.3459 54.9686 10.3459H52.2655L56.3544 17.6115H59.5871C59.5871 17.6115 56.7888 12.8634 56.804 12.8609Z" fill="#B1B2B4"/>
<path d="M46.595 4.48598H43.3369V17.5833H46.595V4.48598Z" fill="#B1B2B4"/>
<path d="M83.1651 4.44999L83.1664 11.8147C83.1664 14.0656 81.8504 15.0106 80.2334 15.0106C78.6139 15.0106 77.3094 14.0694 77.3094 11.8173V4.44999H74.0449V11.8363C74.0449 16.5463 76.8115 17.9194 80.2334 17.9194C83.6567 17.9194 86.4296 16.5463 86.4296 11.8363L86.4283 4.44999H83.1651Z" fill="#B1B2B4"/>
<path d="M68.735 14.8139H64.1368V12.2341H68.7362C69.492 12.2443 70.103 12.8108 70.103 13.5158C70.103 14.2233 69.4908 14.8139 68.735 14.8139ZM64.1368 7.24721H68.6537C69.2736 7.25356 69.7969 7.73116 69.7969 8.35484C69.7969 8.97852 69.2481 9.47518 68.6283 9.4701H64.1368V7.24721ZM71.3326 10.8559C72.1824 10.2564 72.5037 9.26559 72.5037 8.17447C72.5037 6.12306 70.7775 4.47939 68.6575 4.47939H60.9854V17.5779H68.9598V17.583C71.1979 17.583 73.0626 15.8542 73.0626 13.7406C73.0626 12.3611 72.2332 11.3411 71.3326 10.8559Z" fill="#B1B2B4"/>
<path d="M94.6226 9.55525C91.9805 8.98111 91.0875 8.72707 91.0875 7.88872C91.0875 7.14818 92.044 6.77727 93.5556 6.77727C94.982 6.77727 96.7032 7.38444 97.7168 7.99161L98.747 5.32541C97.2138 4.68776 95.3707 4.07805 92.9332 4.07805C89.7373 4.07805 87.7405 5.94655 87.7405 8.23041C87.7405 10.5168 89.3854 11.5216 92.6423 12.2126C95.1713 12.7473 95.856 13.0661 95.856 13.8537C95.856 14.6387 94.8411 14.9283 93.4718 14.9283C91.6998 14.9283 89.9939 14.3389 88.3858 13.6466L87.4141 16.2468C89.3359 17.1385 91.3314 17.8511 93.7093 17.8511C97.6711 17.8511 99.2881 15.9572 99.2881 13.7508C99.2881 11.7883 97.9277 10.2742 94.6226 9.55525Z" fill="#B1B2B4"/>
<path d="M4.11421 10.9996H2.58105C2.58105 13.7827 4.83824 16.0411 7.62257 16.0411C10.4069 16.0411 12.6628 13.7827 12.6628 10.9983H14.3725C14.3725 14.3022 11.6936 16.9811 8.39105 16.9811C6.45396 16.9811 4.73281 16.0602 3.64042 14.6337C4.83951 16.5073 6.93919 17.7496 9.32975 17.7496C13.0578 17.7496 16.0797 14.7264 16.0797 10.9983H17.7882C17.7882 15.246 14.3459 18.6895 10.0982 18.6895C7.58573 18.6895 5.35649 17.4854 3.95289 15.6232C5.46319 17.9325 8.07223 19.458 11.0369 19.458C15.7088 19.458 19.4966 15.6702 19.4966 10.9983H21.0298C21.0285 8.21527 18.7726 5.95808 15.9883 5.95808C13.2039 5.95808 10.948 8.21527 10.948 10.9996H9.23829C9.23829 7.69702 11.9159 5.01812 15.2198 5.01812C17.1556 5.01812 18.8767 5.93903 19.9704 7.36549C18.77 5.49191 16.6716 4.24963 14.2798 4.24963C10.553 4.24963 7.53111 7.27149 7.53111 10.9996H5.82266C5.82266 6.75197 9.26496 3.30967 13.5126 3.30967C16.0238 3.30967 18.2543 4.51384 19.6567 6.37599C18.1464 4.06672 15.5386 2.54118 12.5739 2.54118C7.90202 2.54118 4.11421 6.32772 4.11421 10.9996Z" fill="#B1B2B4"/>
<path d="M11.8048 20.3982C6.61469 20.3982 2.40644 16.1887 2.40644 10.9999C2.40644 5.80848 6.61341 1.60023 11.8035 1.60023C16.9949 1.60023 21.2045 5.80847 21.2045 10.9986C21.2045 16.1887 16.9949 20.3982 11.8048 20.3982ZM11.8048 -0.00152155C5.72934 -0.00152155 0.804688 4.9244 0.804688 10.9986C0.804688 17.0753 5.72934 22 11.8048 22C17.8803 22 22.8049 17.0753 22.8049 10.9986C22.8049 4.9244 17.8803 -0.00152155 11.8048 -0.00152155Z" fill="#B1B2B4"/>
</g>
<defs>
<clipPath id="clip0_678_189">
<rect width="98.4832" height="22" fill="white" transform="translate(0.804688)"/>
</clipPath>
</defs>
</svg>
