<svg width="64" height="22" viewBox="0 0 64 22" fill="none" xmlns="http://www.w3.org/2000/svg">
<g clip-path="url(#clip0_678_102)">
<path d="M3.91606 15.7114C4.18383 16.422 4.55455 17.0296 5.02829 17.5342C5.50203 18.0388 6.06327 18.425 6.71202 18.6928C7.36083 18.9605 8.06625 19.0944 8.82834 19.0944C9.56985 19.0944 10.2649 18.9553 10.9138 18.6773C11.5626 18.3992 12.1289 18.0079 12.6129 17.5033C13.0969 16.9986 13.4728 16.3963 13.7406 15.696C14.0084 14.9957 14.1422 14.2131 14.1422 13.348V0.00146484H17.3862V21.6277H14.1731V19.6195C13.4523 20.3816 12.6026 20.9686 11.6243 21.3806C10.6459 21.7925 9.59042 21.9984 8.45761 21.9984C7.30416 21.9984 6.22802 21.7976 5.22907 21.396C4.23018 20.9943 3.36507 20.4228 2.63395 19.6813C1.90283 18.9398 1.32607 18.0492 0.903872 17.009C0.481606 15.9689 0.270508 14.8103 0.270508 13.5333V0.00146484H3.51444V13.348C3.51444 14.2131 3.64829 15.0008 3.91606 15.7114ZM22.9778 0.00146484V7.87958C23.6987 7.15871 24.5329 6.58722 25.4803 6.16495C26.4277 5.74269 27.4576 5.53159 28.5697 5.53159C29.7232 5.53159 30.8044 5.74781 31.8137 6.18033C32.8229 6.61285 33.6982 7.19987 34.4397 7.94138C35.1812 8.68289 35.7682 9.55818 36.2007 10.5674C36.6332 11.5767 36.8495 12.6477 36.8495 13.7805C36.8495 14.9132 36.6332 15.9791 36.2007 16.978C35.7682 17.977 35.1812 18.8472 34.4397 19.5886C33.6982 20.3301 32.8229 20.9171 31.8137 21.3496C30.8044 21.7821 29.7231 21.9984 28.5697 21.9984C27.4575 21.9984 26.4226 21.7873 25.4649 21.365C24.5071 20.9428 23.6678 20.3712 22.9469 19.6504V21.6276H19.8575V0.00146484H22.9778ZM23.3331 15.9122C23.6111 16.5713 23.9973 17.148 24.4917 17.6423C24.986 18.1367 25.5627 18.528 26.2217 18.8164C26.8809 19.1047 27.5914 19.2489 28.3535 19.2489C29.095 19.2489 29.7952 19.1047 30.4543 18.8164C31.1134 18.528 31.6849 18.1367 32.169 17.6423C32.653 17.1481 33.0392 16.5713 33.3275 15.9122C33.6159 15.2531 33.76 14.5426 33.76 13.7805C33.76 13.0184 33.6159 12.3027 33.3275 11.6333C33.0392 10.9639 32.653 10.3821 32.169 9.88775C31.6849 9.3935 31.1134 9.00726 30.4543 8.72924C29.7952 8.45121 29.095 8.3121 28.3535 8.3121C27.6121 8.3121 26.9118 8.45114 26.2527 8.72924C25.5936 9.00733 25.017 9.3935 24.5226 9.88775C24.0283 10.3821 23.6369 10.9639 23.3486 11.6333C23.0603 12.3027 22.9161 13.0184 22.9161 13.7805C22.916 14.5426 23.0551 15.2531 23.3331 15.9122ZM38.6102 10.5984C39.022 9.60973 39.5886 8.73956 40.3094 7.98779C41.0301 7.23603 41.885 6.64389 42.8736 6.21137C43.8623 5.77885 44.9333 5.56262 46.0867 5.56262C47.2195 5.56262 48.2699 5.7686 49.238 6.18047C50.206 6.59241 51.0401 7.16398 51.7404 7.89517C52.4407 8.62629 52.9865 9.49139 53.3778 10.4903C53.7691 11.4892 53.9648 12.5757 53.9648 13.7497V14.7693H41.1436C41.2466 15.4078 41.4526 15.9999 41.7615 16.5456C42.0705 17.0914 42.4566 17.5652 42.92 17.9668C43.3834 18.3685 43.9086 18.6826 44.4956 18.9091C45.0826 19.1356 45.7056 19.249 46.3648 19.249C48.2391 19.249 49.7529 18.4765 50.9063 16.9318L53.1616 18.6001C52.3789 19.6505 51.411 20.4744 50.2576 21.0717C49.1041 21.6689 47.8066 21.9676 46.3648 21.9676C45.1908 21.9676 44.0941 21.7616 43.0746 21.3497C42.055 20.9378 41.1694 20.361 40.4176 19.6195C39.6659 18.878 39.0737 18.0079 38.6412 17.009C38.2087 16.0101 37.9924 14.9236 37.9924 13.7496C37.9923 12.6374 38.1983 11.587 38.6102 10.5984ZM42.9509 9.37798C42.0755 10.1092 41.4937 11.0824 41.2054 12.2975H50.8136C50.5458 11.0824 49.9743 10.1092 49.0989 9.37798C48.2236 8.64686 47.1989 8.28127 46.0249 8.28127C44.8509 8.28127 43.8262 8.64686 42.9509 9.37798ZM59.8037 9.73325C59.1446 10.4541 58.8151 11.4324 58.8151 12.6683V21.6278H55.6947V5.87148H58.7841V7.81785C59.1755 7.17936 59.6852 6.67472 60.3134 6.304C60.9416 5.93321 61.6882 5.74781 62.5533 5.74781H63.6346V8.65192H62.337C61.3072 8.65199 60.4628 9.01239 59.8037 9.73325Z" fill="#B1B2B4"/>
</g>
<defs>
<clipPath id="clip0_678_102">
<rect width="63.3641" height="22" fill="white" transform="translate(0.270508)"/>
</clipPath>
</defs>
</svg>
