<svg width="96" height="26" viewBox="0 0 96 26" fill="none" xmlns="http://www.w3.org/2000/svg">
<g clip-path="url(#clip0_678_105)">
<path d="M1.07129 3.39995C1.07129 1.63263 2.50398 0.199951 4.27129 0.199951H23.4713C25.2386 0.199951 26.6713 1.63263 26.6713 3.39995V22.6C26.6713 24.3673 25.2386 25.7999 23.4713 25.7999H4.27129C2.50398 25.7999 1.07129 24.3673 1.07129 22.6V3.39995Z" fill="#B1B2B4"/>
<path d="M18.6717 6.5999H20.0465C20.1712 6.5999 20.2717 6.70043 20.2717 6.82518V10.3706C20.2717 10.4954 20.1752 10.5959 20.0506 10.5999H18.8969C18.7722 10.5999 18.6717 10.4994 18.6717 10.3747V9.33742L9.77792 17.7999H12.0465C12.1712 17.7999 12.2717 17.9005 12.2717 18.0252V19.1747C12.2717 19.2994 12.1712 19.4 12.0465 19.4H7.69688C7.5722 19.4 7.47168 19.2994 7.47168 19.1747V17.7999L17.553 8.1999H16.4969C16.3722 8.1999 16.2717 8.09937 16.2717 7.97461V6.82917C16.2717 6.70445 16.3722 6.60396 16.4969 6.60396L18.6717 6.5999ZM10.6717 8.1999L14.4465 8.19538C14.5712 8.19538 14.6717 8.09483 14.6717 7.97009V6.82465C14.6717 6.69993 14.5712 6.59937 14.4505 6.59937H7.70492C7.58024 6.59937 7.47972 6.6999 7.47972 6.82465V10.3741C7.47972 10.4989 7.58024 10.5994 7.70492 10.5994H8.85052C8.97515 10.5994 9.07168 10.4989 9.07168 10.3741V8.19937L10.6717 8.1999ZM18.6717 17.7999H14.0969C13.9722 17.7999 13.8717 17.9005 13.8717 18.0252V19.1747C13.8717 19.2994 13.9722 19.4 14.0969 19.4H20.0465C20.1712 19.4 20.2717 19.2994 20.2717 19.1747V15.6065C20.2717 15.4817 20.1712 15.3812 20.0465 15.3812H18.8969C18.7722 15.3812 18.6717 15.4817 18.6717 15.6065V17.7999Z" fill="white"/>
<path d="M33.0713 18.6345V17.1735L38.489 12.091H34.6889V13.0929H33.1587V10.6992H40.5292V12.1602L35.1553 17.2136H39.0865V16.1971H40.6167V18.6345H33.0713Z" fill="#B1B2B4"/>
<path d="M45.2656 18.8164C44.4716 18.8164 43.7756 18.6378 43.1708 18.2844C42.5696 17.931 42.096 17.4392 41.75 16.8162C41.4076 16.1931 41.2324 15.4718 41.2324 14.6593C41.2324 13.8468 41.4 13.1254 41.7388 12.5024C42.0776 11.8794 42.5476 11.3875 43.1524 11.0341C43.7572 10.6807 44.4496 10.5022 45.2328 10.5022C46.0164 10.5022 46.7084 10.6807 47.3132 11.0341C47.9144 11.3875 48.388 11.8794 48.7268 12.5024C49.0656 13.1254 49.2332 13.8468 49.2332 14.6593C49.2332 15.4718 49.0656 16.1931 48.7268 16.8162C48.388 17.4392 47.9216 17.931 47.3244 18.2844C46.7268 18.6378 46.0416 18.8164 45.2692 18.8164H45.2656ZM45.2656 17.4355C45.7432 17.4355 46.1656 17.3153 46.5336 17.0785C46.9052 16.8417 47.1932 16.5138 47.3972 16.102C47.6048 15.6903 47.7068 15.2094 47.7068 14.6593C47.7068 14.1091 47.6048 13.6282 47.3972 13.2165C47.1896 12.8048 46.898 12.4769 46.5156 12.2401C46.1328 12.0032 45.7064 11.883 45.2292 11.883C44.752 11.883 44.3148 12.0032 43.9432 12.2401C43.5716 12.4769 43.2836 12.8048 43.0688 13.2165C42.8576 13.6282 42.752 14.1091 42.752 14.6593C42.752 15.2094 42.8576 15.6903 43.0688 16.102C43.28 16.5138 43.5752 16.8417 43.9576 17.0785C44.3404 17.3153 44.774 17.4355 45.2584 17.4355H45.2656Z" fill="#B1B2B4"/>
<path d="M54.1045 18.8164C53.3101 18.8164 52.6145 18.6378 52.0097 18.2844C51.4085 17.931 50.9349 17.4392 50.5885 16.8162C50.2461 16.1931 50.0713 15.4718 50.0713 14.6593C50.0713 13.8468 50.2389 13.1254 50.5777 12.5024C50.9165 11.8794 51.3865 11.3875 51.9913 11.0341C52.5961 10.6807 53.2885 10.5022 54.0717 10.5022C54.8549 10.5022 55.5473 10.6807 56.1521 11.0341C56.7533 11.3875 57.2269 11.8794 57.5657 12.5024C57.9045 13.1254 58.0721 13.8468 58.0721 14.6593C58.0721 15.4718 57.9045 16.1931 57.5657 16.8162C57.2269 17.4392 56.7605 17.931 56.1629 18.2844C55.5657 18.6378 54.8805 18.8164 54.1081 18.8164H54.1045ZM54.1045 17.4355C54.5817 17.4355 55.0045 17.3153 55.3725 17.0785C55.7441 16.8417 56.0317 16.5138 56.2357 16.102C56.4437 15.6903 56.5457 15.2094 56.5457 14.6593C56.5457 14.1091 56.4437 13.6282 56.2357 13.2165C56.0281 12.8048 55.7369 12.4769 55.3541 12.2401C54.9717 12.0032 54.5453 11.883 54.0681 11.883C53.5909 11.883 53.1537 12.0032 52.7821 12.2401C52.4105 12.4769 52.1225 12.8048 51.9077 13.2165C51.6961 13.6282 51.5905 14.1091 51.5905 14.6593C51.5905 15.2094 51.6961 15.6903 51.9077 16.102C52.1189 16.5138 52.4141 16.8417 52.7965 17.0785C53.1789 17.3153 53.6125 17.4355 54.0973 17.4355H54.1045Z" fill="#B1B2B4"/>
<path d="M70.6924 11.38C70.146 10.7934 69.3992 10.4983 68.4484 10.4983C67.8032 10.4983 67.2496 10.6586 66.7904 10.9756C66.3388 11.2853 65.9928 11.7334 65.752 12.3127C65.6172 11.9447 65.4388 11.6314 65.2056 11.38C64.6592 10.7934 63.9124 10.4983 62.9612 10.4983C62.3164 10.4983 61.7628 10.6586 61.3036 10.9756C60.9868 11.1942 60.728 11.482 60.5128 11.8318L60.44 10.6914H59.0264V18.6267H60.5348V14.5024C60.5348 13.679 60.7132 13.0377 61.074 12.5823C61.4348 12.1269 61.9376 11.901 62.5824 11.901C62.9648 11.9115 63.3 11.992 63.5916 12.1378C63.8832 12.2872 64.1088 12.5495 64.2728 12.9248C64.4368 13.3001 64.5208 13.8465 64.5208 14.5679V18.6303H66.0292V14.506C66.0292 13.6826 66.2076 13.0414 66.5684 12.5859C66.9288 12.1305 67.4316 11.9046 68.0768 11.9046C68.4592 11.9152 68.7908 11.9958 69.0748 12.1415C69.3592 12.2908 69.5888 12.5531 69.756 12.9284C69.9236 13.3037 70.0112 13.8502 70.0112 14.5716V18.6339H71.5012V14.0943C71.5124 12.8774 71.2464 11.9775 70.7 11.3873L70.6924 11.38Z" fill="#B1B2B4"/>
<path d="M73.2717 9.4165C72.9729 9.4165 72.7145 9.30358 72.4957 9.07767C72.2773 8.85179 72.1641 8.58946 72.1641 8.29071C72.1641 7.99195 72.2737 7.71865 72.4957 7.50369C72.7145 7.28877 72.9729 7.18311 73.2717 7.18311C73.5705 7.18311 73.8437 7.28877 74.0589 7.50369C74.2737 7.71865 74.3793 7.97734 74.3793 8.29071C74.3793 8.60404 74.2737 8.85179 74.0589 9.07767C73.8437 9.30355 73.5853 9.4165 73.2717 9.4165ZM72.5105 18.627L72.5433 10.6916H74.0333L74.0189 18.627H72.5105Z" fill="#B1B2B4"/>
<path d="M81.4185 11.38C80.8721 10.7934 80.1248 10.4983 79.174 10.4983C78.5292 10.4983 77.9752 10.6586 77.5164 10.9756C77.1992 11.1942 76.9408 11.482 76.7256 11.8318L76.6529 10.6914H75.2393V18.6267H76.7477V14.5024C76.7477 13.679 76.9261 13.0377 77.2869 12.5823C77.6477 12.1269 78.1505 11.901 78.7953 11.901C79.1777 11.9115 79.5129 11.992 79.8045 12.1378C80.0957 12.2872 80.3217 12.5495 80.4857 12.9248C80.6497 13.3001 80.7333 13.8465 80.7333 14.5679V18.6303H82.2417V14.0907C82.2417 12.8738 81.9685 11.9739 81.4257 11.3836L81.4185 11.38Z" fill="#B1B2B4"/>
<path d="M85.6157 9.97777C85.6157 9.50049 85.6993 9.15069 85.8705 8.92117C86.0381 8.69529 86.3005 8.5787 86.6465 8.5787C86.7633 8.5787 86.9017 8.60425 87.0657 8.65157C87.2297 8.69889 87.4229 8.77555 87.6449 8.8811L88.1989 7.72249C87.9037 7.58401 87.6121 7.47478 87.3245 7.39826C87.0401 7.31814 86.7741 7.27808 86.5301 7.27808C85.7141 7.27808 85.1057 7.49304 84.7049 7.91931C84.3041 8.34924 84.1001 8.9795 84.1001 9.81387V10.6883H82.6865V11.9416H84.1001V18.6235H85.6085V11.9416H87.7981V10.6883H85.6085V9.97415L85.6157 9.97777Z" fill="#B1B2B4"/>
<path d="M91.5039 18.8164C90.7095 18.8164 90.0139 18.6378 89.4091 18.2844C88.8079 17.931 88.3343 17.4392 87.9879 16.8162C87.6455 16.1931 87.4707 15.4718 87.4707 14.6593C87.4707 13.8468 87.6383 13.1254 87.9771 12.5024C88.3159 11.8794 88.7859 11.3875 89.3907 11.0341C89.9955 10.6807 90.6879 10.5022 91.4711 10.5022C92.2543 10.5022 92.9467 10.6807 93.5515 11.0341C94.1527 11.3875 94.6263 11.8794 94.9651 12.5024C95.3039 13.1254 95.4715 13.8468 95.4715 14.6593C95.4715 15.4718 95.3039 16.1931 94.9651 16.8162C94.6263 17.4392 94.1599 17.931 93.5623 18.2844C92.9651 18.6378 92.2799 18.8164 91.5075 18.8164H91.5039ZM91.5039 17.4355C91.9811 17.4355 92.4039 17.3153 92.7719 17.0785C93.1435 16.8417 93.4311 16.5138 93.6355 16.102C93.8431 15.6903 93.9451 15.2094 93.9451 14.6593C93.9451 14.1091 93.8431 13.6282 93.6355 13.2165C93.4275 12.8048 93.1363 12.4769 92.7535 12.2401C92.3711 12.0032 91.9447 11.883 91.4675 11.883C90.9903 11.883 90.5531 12.0032 90.1815 12.2401C89.8099 12.4769 89.5219 12.8048 89.3071 13.2165C89.0955 13.6282 88.9899 14.1091 88.9899 14.6593C88.9899 15.2094 89.0955 15.6903 89.3071 16.102C89.5183 16.5138 89.8135 16.8417 90.1959 17.0785C90.5787 17.3153 91.0119 17.4355 91.4967 17.4355H91.5039Z" fill="#B1B2B4"/>
</g>
<defs>
<clipPath id="clip0_678_105">
<rect width="94.8" height="26" fill="white" transform="translate(0.871094)"/>
</clipPath>
</defs>
</svg>
