<svg width="128" height="22" viewBox="0 0 128 22" fill="none" xmlns="http://www.w3.org/2000/svg">
<g clip-path="url(#clip0_678_129)">
<mask id="mask0_678_129" style="mask-type:luminance" maskUnits="userSpaceOnUse" x="0" y="0" width="128" height="23">
<path d="M127.26 0.0913086H0.698242V22.0692H127.26V0.0913086Z" fill="white"/>
</mask>
<g mask="url(#mask0_678_129)">
<mask id="mask1_678_129" style="mask-type:luminance" maskUnits="userSpaceOnUse" x="0" y="0" width="128" height="23">
<path d="M127.26 0.0913086H0.698242V22.0692H127.26V0.0913086Z" fill="white"/>
</mask>
<g mask="url(#mask1_678_129)">
<path d="M50.3271 2.49722C50.3271 1.41186 51.1874 0.526367 52.2528 0.526367C53.3132 0.526367 54.1784 1.4068 54.1784 2.49722C54.1413 3.58258 53.2465 4.43012 52.1836 4.39217C51.175 4.35422 50.3667 3.52692 50.3271 2.49722Z" fill="#B1B2B4"/>
</g>
<mask id="mask2_678_129" style="mask-type:luminance" maskUnits="userSpaceOnUse" x="0" y="0" width="128" height="23">
<path d="M127.26 0.0913086H0.698242V22.0692H127.26V0.0913086Z" fill="white"/>
</mask>
<g mask="url(#mask2_678_129)">
<path d="M80.6748 15.6253C80.6748 14.5324 81.535 13.6494 82.593 13.6494C83.6584 13.6494 84.5211 14.5324 84.5211 15.6253C84.5211 16.7157 83.6584 17.5987 82.593 17.5987C81.535 17.5987 80.6748 16.7132 80.6748 15.6253Z" fill="#B1B2B4"/>
</g>
<mask id="mask3_678_129" style="mask-type:luminance" maskUnits="userSpaceOnUse" x="0" y="0" width="128" height="23">
<path d="M127.26 0.0913086H0.698242V22.0692H127.26V0.0913086Z" fill="white"/>
</mask>
<g mask="url(#mask3_678_129)">
<path d="M18.768 14.7728C17.1143 14.7728 15.9599 13.4269 15.9599 11.5016C15.9599 9.57879 17.1118 8.23285 18.768 8.23285C20.4316 8.23285 21.5983 9.57879 21.5983 11.5016C21.5958 13.4572 20.4588 14.7728 18.768 14.7728ZM18.768 5.3588C15.2653 5.3588 12.7217 7.9419 12.7217 11.5016C12.7217 15.0613 15.2677 17.6444 18.768 17.6444C22.288 17.6444 24.839 15.0613 24.839 11.5041C24.839 7.9419 22.283 5.3588 18.768 5.3588ZM46.6042 11.8102C46.483 11.5699 46.3273 11.3447 46.1468 11.1474L46.0406 11.0335L46.1518 10.9247C46.3125 10.7502 46.4781 10.5452 46.6338 10.3074L49.7262 5.60167H45.9713L43.6477 9.28279C43.5167 9.48265 43.2522 9.57626 42.8543 9.57626H42.3228V2.6163C42.3228 1.22481 41.4774 1.0376 40.5603 1.0376H38.9931L38.9956 17.4622H42.3203V12.5389H42.6318C43.01 12.5389 43.2671 12.5844 43.3882 12.7944L45.2224 16.3389C45.7365 17.3003 46.2457 17.4647 47.2048 17.4647H49.7608L47.8599 14.2542L46.6042 11.8102ZM62.7556 5.33349C61.0624 5.33349 59.9821 6.10261 59.379 6.75534L59.1788 6.96533L59.1071 6.68197C58.9291 5.9837 58.3309 5.6042 57.4286 5.6042H55.9381L55.948 17.4647H59.2529V12C59.2529 11.4636 59.3197 11.0032 59.4581 10.5781C59.8264 9.29796 60.8522 8.49849 62.1327 8.49849C63.1635 8.49849 63.5689 9.05509 63.5689 10.4972V15.6634C63.5689 16.8904 64.1226 17.4673 65.3264 17.4673H66.8961L66.8886 9.92287C66.8886 6.91473 65.4574 5.33349 62.7556 5.33349ZM52.2945 5.60167H50.7273L50.7372 14.7728V17.4622H52.4082L52.4675 17.4647L53.2486 17.4622H54.0224V17.4597H54.0298L54.0372 7.40554C54.0322 6.19116 53.4662 5.60167 52.2945 5.60167ZM31.743 14.7728C30.0893 14.7728 28.9349 13.4269 28.9349 11.5016C28.9349 9.57879 30.0893 8.23285 31.743 8.23285C33.4041 8.23285 34.5734 9.57879 34.5734 11.5016C34.5709 13.4572 33.4338 14.7728 31.743 14.7728ZM31.743 5.3588C28.2379 5.3588 25.6918 7.9419 25.6918 11.5016C25.6918 15.0613 28.2379 17.6444 31.743 17.6444C35.2556 17.6444 37.814 15.0613 37.814 11.5041C37.814 7.9419 35.2581 5.3588 31.743 5.3588Z" fill="#B1B2B4"/>
</g>
</g>
<mask id="mask4_678_129" style="mask-type:luminance" maskUnits="userSpaceOnUse" x="0" y="0" width="128" height="23">
<path d="M127.26 0.0913086H0.698242V22.0692H127.26V0.0913086Z" fill="white"/>
</mask>
<g mask="url(#mask4_678_129)">
<mask id="mask5_678_129" style="mask-type:luminance" maskUnits="userSpaceOnUse" x="0" y="0" width="128" height="23">
<path d="M127.233 0.523926H0.698242V22.0414H127.233V0.523926Z" fill="white"/>
</mask>
<g mask="url(#mask5_678_129)">
<mask id="mask6_678_129" style="mask-type:luminance" maskUnits="userSpaceOnUse" x="0" y="0" width="128" height="23">
<path d="M127.26 0.0913086H0.698242V22.0692H127.26V0.0913086Z" fill="white"/>
</mask>
<g mask="url(#mask6_678_129)">
<path d="M102.558 14.7727C100.904 14.7727 99.75 13.4267 99.75 11.5014C99.75 9.57864 100.904 8.23269 102.558 8.23269C104.222 8.23269 105.388 9.57864 105.388 11.5014C105.388 13.4571 104.249 14.7727 102.558 14.7727ZM102.558 5.35864C99.0529 5.35864 96.5068 7.94175 96.5068 11.5014C96.5068 15.0611 99.048 17.6442 102.558 17.6442C106.073 17.6442 108.629 15.0611 108.629 11.504C108.629 7.94175 106.071 5.35864 102.558 5.35864Z" fill="#B1B2B4"/>
</g>
<mask id="mask7_678_129" style="mask-type:luminance" maskUnits="userSpaceOnUse" x="0" y="0" width="128" height="23">
<path d="M127.26 0.0913086H0.698242V22.0692H127.26V0.0913086Z" fill="white"/>
</mask>
<g mask="url(#mask7_678_129)">
<path d="M73.852 14.2466C72.045 14.2466 71.4048 12.635 71.4048 11.1246C71.4048 10.4567 71.5704 8.28851 73.6839 8.28851C74.732 8.28851 76.1286 8.59716 76.1286 11.2334C76.1262 13.7254 74.8877 14.2466 73.852 14.2466ZM77.8417 5.57131C77.2138 5.57131 76.7318 5.82684 76.4895 6.29489L76.4006 6.47704L76.2473 6.33789C75.7134 5.86479 74.7567 5.30566 73.2068 5.30566C70.117 5.30566 68.0381 7.67878 68.0381 11.2157C68.0381 14.7475 70.1911 17.2143 73.2711 17.2143C74.3217 17.2143 75.1547 16.9613 75.8122 16.4502L76.0644 16.2554V16.5843C76.0644 18.1706 75.0633 19.0434 73.2489 19.0434C72.3639 19.0434 71.563 18.8233 71.0266 18.6235C70.3271 18.4059 69.9143 18.588 69.6325 19.304L69.368 19.9669L68.9972 20.9359L69.2271 21.0598C70.3889 21.6923 71.9017 22.0668 73.2662 22.0668C76.0792 22.0668 79.3644 20.5943 79.3644 16.4451L79.3743 5.56372H77.8417" fill="#B1B2B4"/>
</g>
</g>
</g>
<mask id="mask8_678_129" style="mask-type:luminance" maskUnits="userSpaceOnUse" x="0" y="0" width="128" height="23">
<path d="M127.26 0.0913086H0.698242V22.0692H127.26V0.0913086Z" fill="white"/>
</mask>
<g mask="url(#mask8_678_129)">
<mask id="mask9_678_129" style="mask-type:luminance" maskUnits="userSpaceOnUse" x="0" y="0" width="128" height="23">
<path d="M127.26 0.0913086H0.698242V22.0692H127.26V0.0913086Z" fill="white"/>
</mask>
<g mask="url(#mask9_678_129)">
<path d="M6.46521 14.6335L3.7733 14.631V11.342C3.7733 10.6361 4.04026 10.2744 4.62611 10.1883H6.46026C7.7679 10.1883 8.6133 11.0333 8.61824 12.3995C8.61824 13.8037 7.79262 14.6335 6.46521 14.6335ZM3.7733 5.75835V4.8931C3.7733 4.13411 4.08476 3.77485 4.77442 3.72931H6.15128C7.33038 3.72931 8.03734 4.45289 8.03734 5.66221C8.03734 6.58565 7.55285 7.66089 6.1933 7.66089H3.7733V5.75835ZM9.89622 9.04226L9.41173 8.76143L9.83442 8.38953C10.3313 7.9569 11.1544 6.9778 11.1544 5.29031C11.1544 2.7072 9.19914 1.04248 6.17105 1.04248H2.32476C1.42746 1.07537 0.70813 1.82677 0.698242 2.74515V17.3988H6.24274C9.60948 17.3988 11.7798 15.5241 11.7798 12.6196C11.7798 11.0612 11.0753 9.72282 9.89622 9.04226Z" fill="#B1B2B4"/>
</g>
<mask id="mask10_678_129" style="mask-type:luminance" maskUnits="userSpaceOnUse" x="0" y="0" width="128" height="23">
<path d="M127.26 0.0913086H0.698242V22.0692H127.26V0.0913086Z" fill="white"/>
</mask>
<g mask="url(#mask10_678_129)">
<path d="M123.386 5.37143C122.007 5.37396 120.699 6.02416 119.839 7.13229L119.599 7.44095L119.411 7.09434C118.798 5.95079 117.748 5.37396 116.279 5.37396C114.744 5.37396 113.714 6.24933 113.234 6.77303L112.922 7.11964L112.801 6.66171C112.628 6.00392 112.055 5.64213 111.19 5.64213H109.8L109.786 17.4571H112.94V12.2403C112.94 11.7824 112.994 11.332 113.105 10.8589C113.407 9.59901 114.235 8.24295 115.627 8.37704C116.482 8.46306 116.902 9.14109 116.902 10.4491V17.4546H120.079V12.2378C120.079 11.666 120.131 11.2359 120.257 10.8109C120.509 9.6066 121.376 8.37198 122.719 8.37198C123.69 8.37198 124.051 8.93363 124.051 10.4491V15.7266C124.051 16.9182 124.57 17.4546 125.737 17.4546H127.22L127.222 9.91273C127.232 6.897 125.935 5.37143 123.386 5.37143ZM94.6798 13.3535C94.6699 13.3636 93.3128 14.831 91.5256 14.831C89.8966 14.831 88.2528 13.8089 88.2528 11.5269C88.2528 9.55601 89.5283 8.17717 91.3551 8.17717C91.9483 8.17717 92.6207 8.39475 92.727 8.75907L92.7418 8.81978C92.8802 9.33843 93.3425 9.69515 93.8641 9.69262L95.5919 9.69516V8.14681C95.5919 6.10512 93.0582 5.3689 91.3501 5.3689C87.7016 5.3689 85.0566 7.96718 85.0566 11.5471C85.0566 15.1245 87.6744 17.7228 91.2834 17.7228C94.4153 17.7228 96.116 15.6153 96.1333 15.5976L96.2223 15.4837L94.8528 13.1587L94.6798 13.3535Z" fill="#B1B2B4"/>
</g>
</g>
</g>
<defs>
<clipPath id="clip0_678_129">
<rect width="126.562" height="22" fill="white" transform="translate(0.708984)"/>
</clipPath>
</defs>
</svg>
