<svg width="1462" height="250" viewBox="0 0 1462 250" fill="none" xmlns="http://www.w3.org/2000/svg">
<path d="M1332.46 193.939C1332.46 192.424 1333.98 190.909 1335.49 190.909C1337.01 190.909 1338.52 192.424 1338.52 193.939V242.424C1338.52 243.939 1337.01 245.454 1335.49 245.454C1333.98 245.454 1332.46 243.939 1332.46 242.424V193.939Z" fill="#B1B2B4"/>
<path d="M1353.67 193.939C1353.67 192.424 1355.19 190.909 1356.7 190.909H1357.46C1358.98 190.909 1359.73 191.667 1360.49 192.424L1393.07 234.091V193.939C1393.07 192.424 1394.58 190.909 1396.1 190.909C1397.61 190.909 1399.13 192.424 1399.13 193.939V242.424C1399.13 243.939 1397.61 245.454 1396.1 245.454C1394.58 245.454 1393.82 244.697 1393.07 243.939L1359.73 201.515V242.424C1359.73 243.939 1358.22 245.454 1356.7 245.454C1355.19 245.454 1353.67 243.939 1353.67 242.424V193.939Z" fill="#B1B2B4"/>
<path d="M1412 218.182C1412 203.03 1423.37 190.151 1439.27 190.151C1447.61 190.151 1453.67 193.182 1458.21 196.97C1458.97 197.727 1459.73 198.485 1459.73 199.242C1459.73 200.757 1458.21 202.273 1456.7 202.273C1455.94 202.273 1455.18 201.515 1454.42 201.515C1450.64 197.727 1445.33 195.454 1439.27 195.454C1427.15 195.454 1418.82 205.303 1418.82 217.424C1418.82 229.545 1427.91 239.394 1439.27 239.394C1446.09 239.394 1450.64 237.121 1455.18 232.576C1455.94 231.818 1456.7 231.818 1457.45 231.818C1458.97 231.818 1460.48 233.333 1460.48 234.848C1460.48 235.606 1459.73 236.363 1459.73 237.121C1454.42 241.667 1448.36 244.697 1440.03 244.697C1423.37 245.454 1412 233.333 1412 218.182Z" fill="#B1B2B4"/>
<path d="M193.923 0.757568C168.925 0.757568 146.2 14.3939 133.322 33.3333C120.445 13.6364 97.7192 0.757568 72.7212 0.757568C32.5731 0.757568 0 33.3333 0 73.4848C0 99.2424 15.9078 117.424 32.5731 134.091L98.4767 196.212C102.264 199.242 107.567 196.97 107.567 192.424V143.939C107.567 130.303 118.93 118.939 132.565 118.182C146.2 118.182 157.563 129.545 157.563 143.939V192.424C157.563 196.97 162.865 199.242 166.653 196.212L232.556 134.091C249.222 117.424 265.13 98.4848 265.13 73.4848C265.887 33.3333 233.314 0.757568 193.923 0.757568ZM67.4186 128.788C66.6611 129.545 65.1461 130.303 63.6311 130.303C62.1161 130.303 61.3585 129.545 60.601 128.788C38.6332 109.848 28.028 89.3939 28.028 68.9394C28.028 51.5151 38.6332 31.8182 53.0259 22.7273C55.2984 21.2121 58.3285 21.9697 59.8435 24.2424C61.3585 26.5151 60.601 29.5454 58.3285 31.0606C46.9658 37.8788 38.6332 54.5454 38.6332 68.9394C38.6332 86.3636 48.4808 103.788 68.1762 121.212C68.9337 123.485 68.9337 127.273 67.4186 128.788ZM99.2342 110.606C98.4767 112.121 96.9617 112.879 94.6891 112.879C93.9316 112.879 93.1741 112.879 92.4166 112.121C78.0238 103.788 68.1762 87.8788 68.1762 71.9697C68.1762 56.8182 76.5088 43.1818 90.144 36.3636C92.4166 34.8485 95.4466 36.3636 96.9617 38.6364C98.4767 40.9091 96.9617 43.9394 94.6891 45.4545C84.8415 50.7576 78.0238 61.3636 78.0238 72.7273C78.0238 84.8485 85.599 97.7273 97.7192 104.545C99.9917 104.545 100.749 107.576 99.2342 110.606ZM133.322 97.7273C121.202 97.7273 111.354 87.8788 111.354 75.7576C111.354 63.6364 121.202 53.7879 133.322 53.7879C145.442 53.7879 155.29 63.6364 155.29 75.7576C154.533 87.8788 144.685 97.7273 133.322 97.7273ZM173.47 112.121C172.713 112.879 171.955 112.879 171.198 112.879C169.683 112.879 167.41 112.121 166.653 110.606C165.138 108.333 165.895 105.303 168.925 103.788C180.288 96.9697 188.621 84.8485 188.621 71.9697C188.621 60.606 182.561 50 171.955 44.697C169.683 43.1818 168.925 40.1515 169.683 37.8788C171.198 35.606 174.228 34.8485 176.501 35.606C190.136 42.4242 198.468 56.0606 198.468 71.2121C197.711 87.8788 187.863 103.788 173.47 112.121ZM238.617 69.697C238.617 90.1515 228.011 109.848 206.044 129.545C205.286 130.303 203.771 131.061 203.013 131.061C201.498 131.061 199.983 130.303 199.226 129.545C197.711 127.273 197.711 124.242 199.983 122.727C219.679 105.303 229.526 87.8788 229.526 70.4545C229.526 56.0606 220.436 40.1515 209.831 32.5757C207.559 31.0606 206.801 28.0303 208.316 25.7576C209.831 23.4848 212.861 22.7273 215.134 24.2424C228.011 32.5757 238.617 52.2727 238.617 69.697Z" fill="#B1B2B4"/>
<path d="M355.273 46.2119H392.392V96.2119H439.357V46.2119H476.476V179.545H439.357V128.788H392.392V179.545H355.273V46.2119Z" fill="#B1B2B4"/>
<path d="M486.323 128.03C486.323 97.727 507.534 74.2422 537.834 74.2422C573.437 74.2422 589.345 99.9998 589.345 130.303C589.345 132.576 589.345 135.606 589.345 137.879H520.411C523.441 149.242 531.774 154.545 542.379 154.545C550.712 154.545 557.529 151.515 565.105 143.939L584.8 160.606C574.952 173.485 560.56 181.818 540.107 181.818C509.806 181.818 486.323 159.848 486.323 128.03ZM556.772 118.939C556.772 107.576 548.439 100.757 538.592 100.757C528.744 100.757 521.926 108.333 520.411 118.939H556.772Z" fill="#B1B2B4"/>
<path d="M712.062 76.5149H748.422V96.9695C754.482 82.5755 763.572 73.4846 780.995 74.2422V112.121H777.965C759.027 112.121 748.422 122.727 748.422 146.969V178.788H712.062V76.5149Z" fill="#B1B2B4"/>
<path d="M802.964 146.97V105.303H790.844V76.5151H802.964V50.7576H839.325V76.5151H863.565V105.303H839.325V140.152C839.325 147.727 842.355 150.758 849.172 150.758C853.717 150.758 858.262 149.242 862.807 147.727V175.758C855.99 179.545 847.657 181.818 837.81 181.818C815.842 181.061 802.964 171.97 802.964 146.97Z" fill="#B1B2B4"/>
<path d="M319.67 74.9999C330.129 74.9999 338.608 66.5204 338.608 56.0605C338.608 45.6005 330.129 37.1211 319.67 37.1211C309.211 37.1211 300.732 45.6005 300.732 56.0605C300.732 66.5204 309.211 74.9999 319.67 74.9999Z" fill="#B1B2B4"/>
<path d="M697.669 127.272C697.669 95.4543 674.944 74.2422 642.37 74.2422C621.918 74.2422 607.525 82.5755 597.677 95.4543L617.373 112.121C624.948 104.545 631.765 101.515 640.098 101.515C651.461 101.515 659.036 106.818 662.066 118.182V118.939H638.583C609.04 119.697 593.89 130.303 593.89 151.515C593.89 171.969 608.282 182.576 632.523 182.576C646.158 182.576 656.006 177.272 662.823 170.454V180.303H696.911V128.788C697.669 128.788 697.669 128.03 697.669 127.272ZM643.885 158.333C634.795 159.091 628.735 153.03 628.735 146.969C628.735 140.909 634.038 137.121 643.128 137.121H663.581V137.879C663.581 143.182 662.066 157.576 643.885 158.333Z" fill="#B1B2B4"/>
<path d="M882.503 55.303C882.503 51.5152 885.533 47.7273 890.078 47.7273H891.593C894.623 47.7273 896.896 49.2424 898.411 51.5152L945.377 121.97L992.342 51.5152C993.857 49.2424 996.13 47.7273 999.16 47.7273H1000.67C1004.46 47.7273 1008.25 50.7576 1008.25 55.303V172.727C1008.25 176.515 1005.22 180.303 1000.67 180.303C996.887 180.303 993.1 176.515 993.1 172.727V75L951.437 136.364C949.922 138.636 947.649 140.152 945.377 140.152C943.104 140.152 940.831 138.636 939.316 136.364L897.653 75V172.727C897.653 176.515 894.623 180.303 890.078 180.303C886.29 180.303 883.26 177.273 883.26 172.727L882.503 55.303Z" fill="#B1B2B4"/>
<path d="M1037.04 171.97V56.0606C1037.04 52.2727 1040.07 48.4849 1044.61 48.4849H1125.66C1129.45 48.4849 1132.48 51.5152 1132.48 55.303C1132.48 59.0909 1129.45 62.1212 1125.66 62.1212H1052.19V106.818H1117.33C1121.12 106.818 1124.15 109.848 1124.15 113.636C1124.15 117.424 1121.12 120.455 1117.33 120.455H1052.19V165.909H1127.18C1130.97 165.909 1134 168.939 1134 172.727C1134 176.515 1130.97 179.545 1127.18 179.545H1045.37C1040.82 179.545 1037.04 175.758 1037.04 171.97Z" fill="#B1B2B4"/>
<path d="M1200.66 165.909C1233.99 165.909 1254.44 143.182 1254.44 114.394C1254.44 85.6061 1233.23 62.8788 1200.66 62.8788H1170.36V165.909H1200.66ZM1155.21 56.0606C1155.21 52.2727 1158.24 48.4849 1162.78 48.4849H1200.66C1241.56 48.4849 1270.35 76.5152 1270.35 113.636C1270.35 150.758 1242.32 178.788 1200.66 178.788H1162.78C1159 178.788 1155.21 175.758 1155.21 171.212V56.0606Z" fill="#B1B2B4"/>
<path d="M1296.11 55.303C1296.11 51.5152 1299.14 47.7273 1303.68 47.7273C1307.47 47.7273 1311.26 50.7576 1311.26 55.303V172.727C1311.26 176.515 1308.23 180.303 1303.68 180.303C1299.89 180.303 1296.11 177.273 1296.11 172.727V55.303Z" fill="#B1B2B4"/>
<path d="M1425.64 131.061L1395.34 64.394L1365.04 131.061H1425.64ZM1333.22 169.697L1386.25 53.7879C1387.76 50 1390.79 46.9697 1395.34 46.9697H1396.1C1400.64 46.9697 1403.67 49.2425 1405.19 53.7879L1458.21 169.697C1458.97 171.212 1458.97 171.97 1458.97 173.485C1458.97 177.273 1455.94 180.303 1452.15 180.303C1448.36 180.303 1446.09 178.03 1444.58 175L1430.94 144.697H1358.98L1345.34 175C1343.83 178.03 1341.56 180.303 1338.53 180.303C1334.74 180.303 1331.71 177.273 1331.71 173.485C1332.47 171.97 1332.47 171.212 1333.22 169.697Z" fill="#B1B2B4"/>
<path d="M320.428 84.0908H318.913C308.308 84.0908 299.976 92.4242 299.976 103.03V179.545H339.366V103.03C339.366 92.4242 330.276 84.0908 320.428 84.0908Z" fill="#B1B2B4"/>
</svg>
