<svg width="96" height="48" viewBox="0 0 96 48" fill="none" xmlns="http://www.w3.org/2000/svg">
<path d="M24.0221 5.573C13.8773 5.573 5.61719 13.8257 5.61719 23.9779C5.61719 34.1227 13.8773 42.3828 24.0221 42.3828C34.1669 42.3828 42.427 34.1227 42.427 23.9779C42.427 13.8257 34.1743 5.573 24.0221 5.573Z" fill="#B1B2B4"/>
<path d="M24.0074 27.0332C21.8135 27.0332 20.0319 28.7265 20.0319 30.8099C20.0319 31.5461 20.2528 32.2307 20.6356 32.8123C21.681 33.2173 22.8221 33.4381 24.0074 33.4381C25.2 33.4381 26.3338 33.2173 27.3792 32.8123C27.762 32.2307 27.9828 31.5461 27.9828 30.8099C27.9902 28.7265 26.2086 27.0332 24.0074 27.0332Z" fill="#B1B2B4"/>
<path d="M27.4822 24.2281C28.638 26.1422 30.1251 27.7913 31.8699 29.1975C31.119 30.3386 30.1251 31.3103 28.9619 32.0318C29.0061 31.7815 29.0282 31.5312 29.0282 31.2735C29.0282 28.6821 26.7828 26.584 24.0147 26.584C21.2466 26.584 19.0012 28.6821 19.0012 31.2735C19.0012 31.5312 19.0233 31.7889 19.0675 32.0318C17.9043 31.3103 16.9104 30.3386 16.1595 29.1975C17.8969 27.7913 19.384 26.1422 20.5399 24.2281H27.4822ZM27.2687 23.86C25.7963 21.2834 24.9276 18.2355 24.8613 14.6723C24.5816 14.6502 24.2945 14.6355 24.0073 14.6355C23.7129 14.6355 23.4331 14.6502 23.146 14.6797C23.0797 18.2355 22.211 21.2834 20.7386 23.86H27.2687Z" fill="#B1B2B4"/>
<path d="M24.346 31.9288L24.3607 31.9656C24.2945 32.0981 24.1841 32.2601 24.0442 32.3705L24.0147 32.3853L23.9853 32.3705C23.8454 32.2601 23.735 32.0981 23.6687 31.9656L23.6834 31.9288C23.7939 31.8626 23.8749 31.7521 23.9043 31.627L24.0147 31.5386L24.1252 31.627C24.1546 31.7595 24.2356 31.8626 24.346 31.9288ZM24.6626 29.8233C24.6626 29.4405 24.162 28.2405 24.0074 28.2405L23.9706 28.2552C23.7865 28.4024 23.3522 29.4626 23.3522 29.8233C23.3522 30.1104 23.9264 30.8613 23.9264 31.2736L24.0074 31.3472L24.081 31.2736C24.0884 30.8613 24.6626 30.1104 24.6626 29.8233ZM23.6834 31.2368C23.4111 30.5227 22.9399 30.1325 22.454 30.1325C22.0859 30.1325 21.7841 30.427 21.7841 30.8024C21.7841 31.1705 22.0859 31.465 22.454 31.465C22.5644 31.465 22.6822 31.4135 22.7338 31.3472C22.8295 31.2368 22.8074 31.1264 22.8 31.1116L22.7558 31.0896H22.719C22.5939 31.0896 22.4982 30.9865 22.4982 30.8687C22.4982 30.7435 22.6012 30.6478 22.719 30.6478C22.9399 30.6478 23.3227 30.8613 23.5362 31.3104L23.6098 31.3546L23.6908 31.2736L23.6834 31.2368ZM25.5387 30.1325C25.0528 30.1325 24.5816 30.5227 24.3092 31.2368L24.3018 31.2736L24.3828 31.3546L24.4565 31.3104C24.6626 30.8613 25.0528 30.6478 25.2663 30.6478C25.3914 30.6478 25.4871 30.7509 25.4871 30.8687C25.4871 30.9939 25.3841 31.0896 25.2663 31.0896H25.2295L25.1853 31.1116C25.1779 31.1337 25.1558 31.2442 25.2515 31.3472C25.3104 31.4061 25.4209 31.465 25.5313 31.465C25.8994 31.465 26.2012 31.1705 26.2012 30.8024C26.2086 30.427 25.9068 30.1325 25.5387 30.1325Z" fill="#B1B2B4"/>
<path d="M24.0001 6.89087C19.4356 6.89087 15.1436 8.66513 11.9191 11.897C8.69453 15.1216 6.91296 19.4136 6.91296 23.978C6.91296 28.5424 8.69453 32.8345 11.9191 36.059C15.1436 39.2835 19.4356 41.0651 24.0001 41.0651C28.5645 41.0651 32.8565 39.2909 36.081 36.059C39.3056 32.8271 41.0872 28.5424 41.0872 23.978C41.0872 19.4136 39.3129 15.1216 36.081 11.897C32.8565 8.66513 28.5645 6.89087 24.0001 6.89087ZM24.0001 7.5682C33.0626 7.5682 40.4099 14.9154 40.4099 23.978C40.4099 33.0406 33.0626 40.3878 24.0001 40.3878C14.9301 40.3878 7.58287 33.0406 7.58287 23.978C7.58287 14.9154 14.9301 7.5682 24.0001 7.5682ZM28.6234 13.9216C28.3583 13.7964 28.0859 13.686 27.8135 13.5829L29.4332 9.68108C29.7056 9.78415 29.978 9.89458 30.243 10.0124L28.6234 13.9216ZM23.9412 9.46759V10.8664H25.5093C25.8921 10.8664 26.2086 10.5498 26.2086 10.167C26.2086 9.78415 25.8921 9.46759 25.5093 9.46759H23.9412ZM23.9412 12.8835C23.654 12.8835 23.3669 12.8983 23.0872 12.9203V8.71667H25.5166C26.3117 8.71667 27.07 9.36452 27.07 10.1596C27.07 10.8222 26.5473 11.3817 25.9142 11.551L27.0185 13.3179C26.6651 13.2148 26.3043 13.1338 25.9436 13.0676L25.016 11.6099H23.9485V12.8835M13.7596 13.605L14.7902 14.5473L15.9387 13.2811C16.1964 12.994 16.1743 12.5522 15.8945 12.2946C15.6074 12.0369 15.1657 12.059 14.908 12.3388L13.7596 13.605ZM16.2994 15.924C16.0933 16.1228 15.8872 16.3216 15.6958 16.5351L12.6258 13.7375L14.3853 11.8013C14.9228 11.2124 15.8798 11.1388 16.4688 11.6762C17.0577 12.2136 17.0577 13.1633 16.5203 13.7522L15.335 15.0627L16.2994 15.924ZM32.3191 12.3756C32.9522 12.2283 34.1154 13.3841 34.3362 14.1645C34.5203 14.0246 34.9326 13.7228 34.9326 13.7228C34.4393 12.324 32.481 10.9253 31.5534 11.8013C31.0013 12.324 31.3178 13.1265 31.7964 13.6271L32.2602 14.1203C32.7387 14.621 33.151 15.1216 32.7682 15.4381C32.3632 15.7768 31.2221 14.9302 30.5301 13.4799L29.9191 13.9437C30.0663 14.3265 30.3976 14.8786 30.8393 15.3498C31.3473 15.8799 31.8921 16.2259 32.3853 16.3216C32.7682 16.3952 33.1583 16.3363 33.4086 16.1007C34.0418 15.5118 33.8136 14.6578 32.8123 13.605L32.4001 13.1707C31.9583 12.6921 32.1424 12.4197 32.3191 12.3756ZM19.0749 12.1547C19.4872 11.9854 19.9068 11.8381 20.3338 11.713L19.1412 10.351L19.0749 12.1547ZM19.3326 9.41605L22.5718 12.9719C22.2405 13.0161 21.9093 13.0676 21.5853 13.1412L20.8491 12.2946C20.2307 12.4565 19.627 12.67 19.0455 12.9203L19.0013 14.0394C18.6994 14.1866 18.4123 14.3486 18.1252 14.5253L18.4418 9.73262C18.7362 9.62219 19.0307 9.51176 19.3326 9.41605ZM25.3399 14.7314C29.9043 15.3792 33.416 19.2958 33.416 24.0369C33.416 25.5535 33.0553 26.9891 32.4148 28.2627C28.27 25.1486 25.7522 20.7756 25.3399 14.7314ZM28.962 32.032C29.0062 31.7817 29.0283 31.5314 29.0283 31.2664C29.0283 28.6749 26.7829 26.5768 24.0148 26.5768C21.2467 26.5768 19.0013 28.6749 19.0013 31.2664C19.0013 31.524 19.0234 31.7817 19.0675 32.032C17.9043 31.3105 16.9105 30.3388 16.1596 29.1903C17.897 27.7841 19.3841 26.1351 20.5399 24.221H27.497C28.6528 26.1351 30.1399 27.7841 31.8847 29.1903C31.1191 30.3388 30.1252 31.3032 28.962 32.032ZM27.3866 32.8124C26.3412 33.2173 25.2001 33.4381 24.0148 33.4381C22.8221 33.4381 21.6884 33.2173 20.643 32.8124C20.2602 32.2308 20.0393 31.5461 20.0393 30.8099C20.0393 28.7265 21.8209 27.0332 24.0148 27.0332C26.2086 27.0332 27.9902 28.7265 27.9902 30.8099C27.9902 31.5461 27.7694 32.2308 27.3866 32.8124ZM14.6062 24.0369C14.6062 19.2958 18.1178 15.3719 22.6823 14.7314C22.27 20.7756 19.7522 25.1559 15.6074 28.2627C14.9743 26.9891 14.6062 25.5535 14.6062 24.0369ZM24.0074 14.6357C24.2945 14.6357 24.5816 14.6504 24.8614 14.6799C24.9277 18.243 25.7964 21.2835 27.2688 23.8602H20.7461C22.2185 21.2835 23.0872 18.2357 23.1534 14.6799C23.4332 14.6504 23.7203 14.6357 24.0074 14.6357ZM24.0074 13.9584C18.4491 13.9584 13.9289 18.4786 13.9289 24.0369C13.9289 29.5952 18.4491 34.1154 24.0074 34.1154C29.5657 34.1154 34.0859 29.5952 34.0859 24.0369C34.0859 18.4786 29.5657 13.9584 24.0074 13.9584ZM15.8135 33.7032L15.2688 33.9608L15.6442 34.2848L15.8135 33.7032ZM15.6148 35.2418L15.4086 35.0872L15.578 34.5277L15.0405 34.0713L14.5105 34.3289L14.3338 34.1596L15.9093 33.4161L16.1007 33.578L15.6148 35.2418ZM16.1007 35.5878L16.9841 34.248L17.1755 34.3731L16.2921 35.713L16.1007 35.5878ZM17.8602 34.8075L18.1326 36.3019L18.6921 35.2418L18.8908 35.3449L18.162 36.7437L17.9632 36.6627L17.6908 35.1535L17.1166 36.221L16.9178 36.1105L17.654 34.7044L17.8602 34.8075ZM20.5841 35.978L20.5105 36.1915L19.9878 36.0075L19.5387 37.2958L19.3252 37.2222L19.7743 35.9338L19.2516 35.7572L19.3252 35.5437L20.5841 35.978ZM24.0516 37.1559L24.7731 37.1707L24.7657 37.5903C24.7583 37.8774 24.4491 38.0541 24.0516 38.0467C23.632 38.0394 23.1976 37.7449 23.205 37.2075C23.2123 36.7584 23.5804 36.3976 24.081 36.405C24.4565 36.4124 24.6553 36.6111 24.7436 36.6995L24.5816 36.8615C24.508 36.7878 24.3829 36.6406 24.1031 36.6332C23.6835 36.6259 23.4405 36.8983 23.4332 37.2222C23.4258 37.5314 23.6688 37.8111 24.0663 37.8185C24.3387 37.8259 24.5375 37.7007 24.5375 37.5682V37.3915L24.0442 37.3841L24.0516 37.1559ZM26.5105 36.1989L26.5399 36.4271L25.4872 36.5817L25.5461 36.994L26.0761 36.9203L26.1056 37.1486L25.5755 37.2222L25.6418 37.7007L26.7313 37.5461L26.7608 37.7743L25.443 37.9657L25.2221 36.405L26.5105 36.1989ZM27.335 36.221L27.4675 36.67L28.1375 36.4639C28.2994 36.4124 28.3657 36.3019 28.3215 36.1547C28.27 35.9854 28.1301 35.9854 28.005 36.0222L27.335 36.221ZM27.9387 35.8013C28.1816 35.7277 28.4467 35.7792 28.5424 36.0884C28.6381 36.4197 28.454 36.5817 28.3289 36.6332L28.8221 37.1633L28.5866 37.2516L28.1007 36.7142L27.5338 36.8835L27.7252 37.5167L27.5043 37.5756L27.0479 36.0664L27.9387 35.8013ZM31.4062 34.3289L31.524 34.9179L31.9289 34.6308L31.4062 34.3289ZM32.827 34.8958L32.6283 35.0504L32.1424 34.7559L31.5681 35.1608L31.6786 35.7351L31.4724 35.8602L31.1412 34.167L31.3473 34.0197L32.827 34.8958ZM32.3338 33.2394L33.4086 34.3952L33.2393 34.5424L32.1718 33.394L32.3338 33.2394ZM32.9596 32.621L34.4761 32.724L33.5853 31.9216L33.7399 31.7522L34.9105 32.805L34.778 32.9743L33.2467 32.8713L34.1448 33.6811L33.9829 33.843L32.805 32.7829L32.9596 32.621ZM30.2872 34.7338L31.0307 36.1253L30.832 36.2357L30.2945 35.2565L30.2577 36.3608L29.3448 35.7424L29.8234 36.751L29.6172 36.8394L28.9326 35.4185L29.1387 35.3154L30.0663 35.9412L30.0958 34.8222L30.2872 34.7338ZM15.0185 32.7019V32.7093L14.8565 32.805L14.8491 32.8124V32.805C14.7461 32.459 14.3632 32.0099 14.0982 32.0099H14.0688L13.9436 32.1056C13.9142 32.1645 13.9142 32.2676 14.032 32.4295L14.1792 32.6283C14.4001 32.9228 14.5031 33.1731 14.4737 33.3572L14.3117 33.6075L14.0982 33.6664L13.9215 33.6369C13.7375 33.578 13.5313 33.4161 13.362 33.1805C13.1927 32.9522 13.097 32.724 13.0602 32.5768H13.0675L13.2369 32.4222V32.4295C13.4283 33.0111 13.8111 33.4161 14.0393 33.4161L14.1424 33.3866L14.2381 33.2467C14.2675 33.1068 14.1424 32.9228 14.0099 32.7461L13.8405 32.5179C13.7228 32.3633 13.6639 32.1866 13.6859 32.0467L13.8185 31.8259L14.0393 31.7522C14.4001 31.7522 14.8933 32.2234 15.0185 32.7019ZM21.3866 37.097L21.4381 36.8688L21.9976 36.994L21.9461 37.2222L21.3866 37.097Z" fill="white"/>
<path d="M59.788 15.88C60.976 15.88 62.0027 16.078 62.868 16.474C63.748 16.87 64.4227 17.442 64.892 18.19C65.3613 18.9233 65.596 19.8033 65.596 20.83C65.596 21.8567 65.3613 22.7513 64.892 23.514C64.4227 24.262 63.748 24.834 62.868 25.23C62.0027 25.626 60.976 25.824 59.788 25.824H56.576V31.5H53.804V15.88H59.788ZM59.678 23.382C60.6753 23.382 61.4307 23.1693 61.944 22.744C62.472 22.3187 62.736 21.6807 62.736 20.83C62.736 19.994 62.472 19.3707 61.944 18.96C61.4307 18.5347 60.6753 18.322 59.678 18.322H56.576V23.382H59.678ZM69.7119 26.264C69.8439 26.88 70.0712 27.4227 70.3939 27.892C70.7166 28.3467 71.1419 28.6987 71.6699 28.948C72.1979 29.1973 72.8139 29.322 73.5179 29.322C74.1046 29.322 74.6032 29.2487 75.0139 29.102C75.4392 28.9553 75.7692 28.7353 76.0039 28.442C76.2386 28.1487 76.3486 27.7893 76.3339 27.364C76.3339 26.7187 76.0332 26.1833 75.4319 25.758C74.8452 25.318 73.8626 24.9293 72.4839 24.592C70.8266 24.196 69.5359 23.6313 68.6119 22.898C67.6879 22.1647 67.2259 21.204 67.2259 20.016C67.2259 19.1067 67.4532 18.3147 67.9079 17.64C68.3772 16.9653 69.0299 16.4447 69.8659 16.078C70.7166 15.7113 71.6919 15.528 72.7919 15.528C73.9212 15.528 74.9259 15.748 75.8059 16.188C76.7006 16.6133 77.4046 17.2147 77.9179 17.992C78.4459 18.7693 78.7759 19.664 78.9079 20.676L76.0919 20.83C76.0332 20.2433 75.8499 19.7373 75.5419 19.312C75.2486 18.872 74.8599 18.5347 74.3759 18.3C73.8919 18.0653 73.3492 17.948 72.7479 17.948C71.9412 17.948 71.2886 18.1387 70.7899 18.52C70.2912 18.9013 70.0492 19.4073 70.0639 20.038C70.0639 20.4927 70.2179 20.874 70.5259 21.182C70.8486 21.49 71.2299 21.732 71.6699 21.908C72.1099 22.0693 72.6892 22.2453 73.4079 22.436L73.7379 22.524C75.4392 22.9493 76.7666 23.5433 77.7199 24.306C78.6879 25.0687 79.1719 26.0367 79.1719 27.21C79.1719 28.1633 78.9152 28.9847 78.4019 29.674C77.8886 30.3633 77.1919 30.884 76.3119 31.236C75.4319 31.588 74.4639 31.764 73.4079 31.764C72.2052 31.764 71.1199 31.544 70.1519 31.104C69.1986 30.664 68.4359 30.0407 67.8639 29.234C67.3066 28.4273 66.9839 27.4887 66.8959 26.418L69.7119 26.264ZM92.5917 31.5L92.3277 28.178L92.6357 28.464C92.4744 29.124 92.1591 29.7107 91.6897 30.224C91.2204 30.7373 90.6337 31.1407 89.9297 31.434C89.2404 31.7127 88.4997 31.852 87.7077 31.852C86.2557 31.852 84.9797 31.5 83.8797 30.796C82.7944 30.0773 81.9511 29.102 81.3497 27.87C80.7631 26.6233 80.4697 25.2373 80.4697 23.712C80.4697 22.172 80.7631 20.7787 81.3497 19.532C81.9511 18.2853 82.8091 17.31 83.9237 16.606C85.0384 15.8873 86.3364 15.528 87.8177 15.528C89.5191 15.528 90.9344 15.99 92.0637 16.914C93.1931 17.838 93.9411 19.0847 94.3077 20.654L91.4257 20.808C91.1911 19.928 90.7584 19.2387 90.1277 18.74C89.5117 18.2267 88.7344 17.97 87.7957 17.97C86.7984 17.97 85.9624 18.2193 85.2877 18.718C84.6277 19.2167 84.1364 19.906 83.8137 20.786C83.4911 21.6513 83.3297 22.6267 83.3297 23.712C83.3297 24.7973 83.4911 25.7653 83.8137 26.616C84.1364 27.4667 84.6277 28.1487 85.2877 28.662C85.9624 29.1607 86.7984 29.41 87.7957 29.41C88.5437 29.41 89.1891 29.256 89.7317 28.948C90.2744 28.6253 90.6997 28.1853 91.0077 27.628C91.3304 27.056 91.5284 26.4107 91.6017 25.692H87.7737V23.448H94.3737V31.5H92.5917Z" fill="#B1B2B4"/>
</svg>
