<svg width="139" height="28" viewBox="0 0 139 28" fill="none" xmlns="http://www.w3.org/2000/svg">
<path d="M0.378906 0H28.171V28H0.378906V0Z" fill="#B1B2B4"/>
<path d="M78.2109 5.54443C78.4651 5.56754 78.5113 5.86786 78.5344 6.05268C78.6037 6.99988 78.6268 7.92397 78.6268 8.87117C78.673 9.77216 78.673 10.65 78.673 11.551C79.1812 11.1583 79.6664 10.7425 80.267 10.5114C81.2142 10.0956 82.3694 10.0956 83.2934 10.5807C84.2868 11.089 84.9799 12.0593 85.3265 13.0989C85.6499 14.0923 85.7423 15.155 85.673 16.1946C85.5806 17.419 85.2571 18.6434 84.541 19.6368C84.1251 20.2144 83.5707 20.7227 82.8776 20.9768C81.7687 21.3695 80.5443 21.2309 79.5509 20.6071C79.2505 20.4223 78.9733 20.1451 78.6961 19.9141C78.5806 20.2837 78.4882 20.6302 78.3727 20.9999C77.8413 20.9999 77.3331 21.0461 76.8017 20.9537C77.0096 20.122 77.0096 19.2441 77.0327 18.3893C77.0789 15.3629 77.0327 12.3365 77.0096 9.33321C76.9403 8.15499 77.0327 6.97677 76.8248 5.82166C77.3099 5.68304 77.7489 5.54443 78.2109 5.54443ZM82.0921 11.7821C81.6301 11.6896 81.168 11.6896 80.706 11.7359C79.8743 11.8514 79.2043 12.4289 78.673 13.0296C78.6499 13.2375 78.673 13.4223 78.6499 13.6302V18.4355C78.6268 18.5972 78.7654 18.7128 78.8809 18.8052C79.6895 19.5906 80.8908 19.9603 81.9997 19.683C82.5311 19.5444 82.9931 19.1979 83.2472 18.7128C83.64 18.0428 83.7786 17.2573 83.8479 16.4949C83.8941 15.9174 83.9634 15.3167 83.8941 14.7392C83.871 14.0692 83.7324 13.353 83.3859 12.7755C83.1086 12.2903 82.6466 11.8976 82.0921 11.7821ZM88.9766 5.96027C89.3 5.84476 89.6697 5.86787 89.9931 6.00648C90.2934 6.1913 90.5014 6.46852 90.64 6.79196C90.8479 7.48503 90.2935 8.2705 89.5773 8.36291C89.0228 8.43222 88.4222 8.10879 88.2604 7.55433C88.0294 6.95367 88.376 6.2144 88.9766 5.96027ZM39.6994 7.2309C40.4849 6.69955 41.409 6.2837 42.3793 6.2837C43.3727 6.2606 44.3892 6.32991 45.2901 6.76885C45.6598 6.93057 46.0294 7.11539 46.3529 7.39262C46.1218 7.78536 45.8215 8.13189 45.5443 8.47842C45.1746 8.2705 44.8281 8.03948 44.4354 7.90087C43.4651 7.55433 42.3561 7.48502 41.3859 7.87776C40.5773 8.20119 39.9073 8.82496 39.4915 9.58734C39.2142 10.1187 38.9601 10.6962 38.8446 11.2969C38.7522 11.8745 38.706 12.4751 38.6829 13.0758C38.6598 13.8613 38.6136 14.6698 38.6598 15.4553C38.7984 16.5642 39.168 17.6731 39.9304 18.5048C40.5773 19.2672 41.5476 19.7061 42.541 19.7986C43.0492 19.8217 43.5806 19.8217 44.0888 19.7061C44.7126 19.5675 45.2439 19.2441 45.8215 18.99C46.1449 19.3134 46.4453 19.683 46.7225 20.0758C46.3066 20.3068 45.8677 20.5378 45.4057 20.7226C44.2043 21.2078 42.8413 21.2309 41.5707 21.0923C40.6466 20.9075 39.7918 20.4223 39.0756 19.8217C38.2439 19.1055 37.6433 18.1583 37.2967 17.1187C37.0426 16.4256 36.9271 15.6863 36.8578 14.9702C36.8347 14.4157 36.7654 13.8844 36.8347 13.3299C36.8578 12.2903 37.0195 11.2738 37.4354 10.3035C37.8974 9.10218 38.6367 7.97017 39.6994 7.2309Z" fill="#B1B2B4"/>
<path d="M8.62695 6.97697C8.74246 6.95387 8.88108 6.90766 8.99659 6.90766C9.59725 6.88456 10.1979 6.93076 10.7986 6.95386C10.891 6.93076 10.9372 7.02317 10.9603 7.09248C11.8613 8.96377 12.7623 10.8582 13.6864 12.7294C13.8943 13.1222 14.056 13.5149 14.287 13.8846C14.4718 13.5842 14.6336 13.2608 14.7953 12.9374C15.8349 10.9275 16.8052 8.91757 17.8217 6.90766C18.4916 6.93077 19.1616 6.86146 19.8316 6.97697C19.7161 7.36971 19.485 7.69314 19.3233 8.06278C17.9834 10.6271 16.6204 13.1915 15.2804 15.7558C15.2342 15.8483 15.2111 15.9638 15.2111 16.0793C15.2111 17.9044 15.2111 19.7526 15.2111 21.5776C14.5642 21.5776 13.9174 21.5776 13.2705 21.5776C13.2705 19.7988 13.2705 17.9968 13.2705 16.2179C13.2705 16.0331 13.2936 15.8252 13.1781 15.6403C11.9306 13.307 10.7062 10.9737 9.45864 8.61723C9.18141 8.06278 8.88108 7.53142 8.62695 6.97697Z" fill="#FFFEFE"/>
<path d="M116.098 7.78531C116.629 7.6236 117.184 7.48499 117.738 7.39258C117.646 8.40908 117.577 9.42558 117.554 10.4652C118.408 10.4883 119.286 10.4883 120.141 10.5114C120.002 10.9041 119.841 11.2969 119.656 11.6665C118.917 11.6665 118.2 11.6665 117.461 11.6665C117.461 12.6137 117.461 13.5609 117.461 14.5081C117.461 15.2474 117.507 16.0097 117.484 16.749C117.507 17.6038 117.461 18.4586 117.554 19.2903C117.577 19.6368 117.9 19.8909 118.2 19.9833C118.732 20.0989 119.286 20.0526 119.795 19.9371C119.933 20.2375 120.002 20.584 119.979 20.9074C119.517 21.1616 118.963 21.2078 118.431 21.254C117.692 21.2771 116.861 21.1616 116.329 20.584C115.89 20.1682 115.936 19.5213 115.867 18.9668C115.821 17.7655 115.844 16.5411 115.821 15.3398C115.821 14.1154 115.821 12.8678 115.821 11.6434C115.359 11.6434 114.897 11.6434 114.435 11.6434C114.412 11.2507 114.412 10.8348 114.435 10.4421C114.897 10.4421 115.336 10.4421 115.798 10.4421C115.96 9.56419 115.96 8.6632 116.098 7.78531ZM52.9364 10.2111C53.3754 10.2342 53.8143 10.2111 54.2302 10.3497C55.2005 10.6731 56.009 11.3431 56.5173 12.221C56.9562 12.9833 57.2566 13.8381 57.2797 14.716C57.3259 15.8942 57.3721 17.1187 57.0024 18.2507C56.6559 19.3134 55.9166 20.2606 54.9001 20.7919C53.9067 21.3002 52.7054 21.4157 51.6427 21.1154C50.6724 20.8612 49.8407 20.2144 49.2863 19.3827C48.6625 18.4817 48.4546 17.3959 48.4315 16.3101C48.4084 15.2705 48.3853 14.2078 48.7318 13.2144C49.0552 12.2441 49.679 11.3431 50.5569 10.7886C50.9496 10.5345 51.3886 10.3266 51.8506 10.2342C52.2203 10.188 52.5899 10.2111 52.9364 10.2111ZM52.1047 11.551C51.5503 11.6896 51.0189 12.013 50.7186 12.4982C50.2797 13.2144 50.2104 14.0691 50.1641 14.8777C50.1179 15.4784 50.1641 16.079 50.2104 16.6797C50.3028 17.3959 50.4414 18.1583 50.7879 18.8051C51.1575 19.4982 51.943 19.8447 52.7054 19.8909C53.4216 19.9371 54.2071 19.7523 54.7153 19.1979C55.1311 18.7358 55.3622 18.1583 55.4546 17.5345C55.5701 16.7721 55.547 16.0097 55.5239 15.2474C55.5008 14.4619 55.4315 13.6302 55.108 12.8909C54.9232 12.4289 54.5767 12.0361 54.1377 11.8051C53.5371 11.4355 52.7747 11.3893 52.1047 11.551ZM60.1675 10.5576C60.6526 10.3959 61.1377 10.2804 61.646 10.188C61.8539 10.65 61.9694 11.1583 62.0156 11.6665C62.3622 11.4817 62.6163 11.2045 62.9397 10.9965C63.6559 10.4652 64.5338 10.1417 65.4348 10.188C65.6427 10.2111 65.8275 10.2573 66.0123 10.3497C66.3127 10.5114 66.6361 10.6731 66.8902 10.9041C67.1443 11.1583 67.3292 11.4817 67.514 11.8051C67.9298 11.6203 68.2302 11.2969 68.5998 11.0427C69.2236 10.6038 69.9397 10.2573 70.7252 10.188C71.4414 10.1186 72.1575 10.3497 72.6889 10.8348C72.9199 11.0658 73.1741 11.2969 73.2896 11.5972C73.4051 11.8975 73.4513 12.221 73.4744 12.5444C73.5899 14.2309 73.5206 15.9404 73.5899 17.6269C73.5899 18.7589 73.5899 19.8678 73.5899 20.9998C73.0354 20.9998 72.481 21.0229 71.9034 20.9998C71.9034 19.3134 71.9034 17.6269 71.9034 15.9404C71.9034 14.8546 71.9265 13.7688 71.8341 12.683C71.7879 12.3365 71.6031 12.013 71.3259 11.8051C71.0024 11.5972 70.5866 11.6203 70.217 11.6434C69.547 11.7127 69.0156 12.1285 68.5074 12.5213C68.2764 12.7292 68.0222 12.914 67.7912 13.1219C67.7219 13.1682 67.745 13.2837 67.745 13.353C67.745 15.8942 67.745 18.4355 67.745 20.9767C67.1906 20.9767 66.6361 20.9767 66.0816 20.9767V15.0394C66.0816 14.5543 66.0816 14.0691 66.0585 13.6071C66.0354 13.122 66.0816 12.5906 65.8506 12.1516C65.5041 11.6665 64.8341 11.5741 64.3028 11.7127C63.4711 11.9206 62.7318 12.4289 62.108 13.0064C62.0156 13.0757 62.0156 13.1913 62.0156 13.3068C62.0156 15.8711 62.0156 18.4355 62.0156 20.9998C61.5305 21.0229 61.0453 21.0229 60.5602 20.9998C60.514 18.3893 60.5371 15.7556 60.4678 13.1219C60.4447 12.5213 60.4447 11.9206 60.3754 11.3431C60.3061 11.0658 60.2137 10.8117 60.1675 10.5576ZM88.5833 10.4652C89.1147 10.3959 89.646 10.3035 90.1774 10.188C90.2467 11.6665 90.2236 13.1451 90.2236 14.6236C90.2236 16.749 90.2236 18.8744 90.2236 20.9998C89.6691 21.0229 89.1147 21.0229 88.5602 20.9998C88.5371 17.9503 88.5602 14.9239 88.5602 11.8744C88.5833 11.4124 88.5602 10.9272 88.5833 10.4652ZM109.999 10.2573C111.131 10.4652 112.101 11.5048 112.125 12.683C112.194 14.4388 112.101 16.1946 112.125 17.9503V18.4817C112.125 18.8282 112.148 19.1748 112.24 19.5213C112.309 19.8678 112.633 20.0526 112.887 20.2606C112.656 20.584 112.448 20.9536 112.148 21.2309C111.963 21.3926 111.732 21.2078 111.593 21.1154C111.2 20.815 110.923 20.3761 110.692 19.9371C110.323 20.1451 110.068 20.4454 109.699 20.6533C109.098 21.046 108.382 21.2771 107.643 21.254C106.996 21.2771 106.326 21.1616 105.748 20.8612C104.801 20.353 104.27 19.2441 104.293 18.2045C104.293 17.188 104.801 16.1946 105.61 15.5939C106.58 14.8546 107.828 14.6236 109.006 14.5312C109.537 14.485 110.092 14.485 110.646 14.4619C110.669 13.9305 110.623 13.3992 110.554 12.8678C110.484 12.4289 110.276 11.9668 109.861 11.7358C109.375 11.4817 108.798 11.4586 108.243 11.551C107.227 11.6665 106.28 12.1055 105.448 12.7061C105.217 12.3827 104.986 12.0823 104.801 11.7358C104.709 11.5741 104.847 11.4355 104.986 11.3662C106.095 10.7424 107.319 10.2111 108.613 10.2342H109.167C109.445 10.2111 109.722 10.2111 109.999 10.2573ZM109.306 15.5477C108.798 15.5939 108.266 15.617 107.781 15.7556C107.181 15.9173 106.626 16.3101 106.303 16.8414C106.118 17.1418 106.118 17.5114 106.095 17.8579C106.095 18.2276 106.049 18.6434 106.187 18.9899C106.326 19.3596 106.58 19.7061 106.95 19.8447C107.365 20.0295 107.851 20.0526 108.313 20.0064C108.867 19.9371 109.352 19.6368 109.768 19.3134C110.115 19.013 110.461 18.6434 110.484 18.1583C110.554 17.3035 110.53 16.4487 110.554 15.5939C110.138 15.5939 109.722 15.5015 109.306 15.5477ZM127.418 10.2804C128.365 10.5114 129.22 11.0889 129.775 11.8744C130.237 12.5213 130.537 13.2606 130.676 14.046C130.791 14.7853 130.837 15.5477 130.791 16.287C130.768 17.5114 130.398 18.7358 129.659 19.7061C129.059 20.4916 128.134 20.9536 127.187 21.1385C126.032 21.3464 124.785 21.1385 123.814 20.4454C122.96 19.8447 122.428 18.8744 122.128 17.9041C121.966 17.3959 121.943 16.8876 121.897 16.3563C121.874 15.4784 121.874 14.6005 122.035 13.7457C122.266 12.7754 122.752 11.8282 123.491 11.1351C124.045 10.6269 124.738 10.3035 125.478 10.2111C126.125 10.1417 126.771 10.1649 127.418 10.2804ZM125.593 11.5279C124.808 11.6203 124.184 12.2441 123.93 12.9602C123.606 13.7226 123.653 14.5543 123.63 15.3629C123.653 16.1253 123.653 16.8876 123.791 17.65C123.884 18.1583 124.045 18.6665 124.392 19.0592C124.715 19.452 125.2 19.7061 125.686 19.7985C125.87 19.8447 126.078 19.8678 126.263 19.8678H126.448L126.633 19.8447C127.026 19.7985 127.395 19.683 127.742 19.4982C128.158 19.2672 128.458 18.8282 128.62 18.3893C128.828 17.8579 128.851 17.2804 128.897 16.7259C128.92 16.0559 128.943 15.386 128.897 14.716C128.851 14.0229 128.758 13.3068 128.435 12.683C128.134 12.221 127.719 11.8282 127.21 11.5972C126.725 11.4586 126.148 11.4586 125.593 11.5279ZM133.633 10.5807C134.141 10.4421 134.626 10.2804 135.134 10.1649C135.412 10.6731 135.458 11.2738 135.481 11.8282C135.735 11.6434 135.943 11.3893 136.174 11.1583C136.89 10.4421 137.953 10.0031 138.969 10.188V10.3266C138.738 10.8117 138.6 11.3431 138.392 11.8513C138.369 11.9437 138.23 11.9206 138.161 11.9206C137.722 11.9206 137.237 11.9206 136.844 12.1516C136.451 12.3827 136.105 12.683 135.828 13.0526C135.55 13.3992 135.597 13.8843 135.597 14.3002C135.573 14.9008 135.55 15.5015 135.573 16.1021C135.573 17.7193 135.573 19.3596 135.573 20.9767C135.019 20.9998 134.464 20.9998 133.91 20.9767C133.91 19.1748 133.91 17.3497 133.91 15.5477C133.91 14.3233 133.91 13.0757 133.864 11.8513C133.818 11.4355 133.679 11.0196 133.633 10.5807ZM93.5041 10.6038C93.9892 10.4421 94.4975 10.2573 95.0057 10.2573C95.1906 10.7424 95.3061 11.2507 95.3754 11.7589C95.8143 11.4817 96.184 11.1121 96.646 10.8579C97.5239 10.3497 98.5866 9.98003 99.58 10.3497C100.158 10.5576 100.735 10.881 101.082 11.4124C101.359 11.782 101.428 12.2903 101.474 12.7523C101.567 14.3926 101.544 16.0328 101.544 17.6962C101.544 18.8051 101.567 19.8909 101.567 20.9998C101.012 21.0229 100.458 21.0229 99.9034 20.9998C99.9034 19.1979 99.8572 17.3728 99.8572 15.5708C99.8341 14.5543 99.8803 13.5609 99.7648 12.5444C99.6031 12.0592 99.1411 11.6665 98.6328 11.6434C98.2632 11.6203 97.8704 11.6203 97.5008 11.7589C96.7153 12.0592 95.9991 12.5444 95.3523 13.0757C95.3292 15.7094 95.3523 18.3662 95.3523 20.9998C94.8671 20.9998 94.382 21.0229 93.8968 20.9998C93.8968 19.4982 93.8506 17.9965 93.8506 16.4949C93.8275 14.947 93.8506 13.4223 93.7582 11.8744C93.7351 11.4355 93.5965 11.0196 93.5041 10.6038Z" fill="#B1B2B4"/>
</svg>
