<svg width="129" height="27" viewBox="0 0 129 27" fill="none" xmlns="http://www.w3.org/2000/svg">
<path d="M33.6147 15.7782C33.7477 17.0219 34.879 19.1539 38.1619 19.1539C41.0233 19.1539 42.3987 17.3328 42.3987 15.5562C42.3987 13.9572 41.3117 12.6469 39.1602 12.2027L37.6073 11.8696C37.0085 11.7586 36.6093 11.4255 36.6093 10.8925C36.6093 10.2706 37.2303 9.80428 38.0067 9.80428C39.2488 9.80428 39.7146 10.626 39.8034 11.27L42.2655 10.7148C42.1325 9.53778 41.0899 7.56128 37.9845 7.56128C35.6332 7.56128 33.9032 9.18246 33.9032 11.1367C33.9032 12.6691 34.8568 13.935 36.9641 14.4013L38.406 14.7345C39.2488 14.9121 39.5816 15.3119 39.5816 15.8004C39.5816 16.3779 39.1158 16.8886 38.1397 16.8886C36.8533 16.8886 36.2098 16.0891 36.1435 15.223L33.6147 15.7782Z" fill="#B1B2B4"/>
<path d="M51.8267 18.8209H54.6438C54.5994 18.4434 54.5328 17.6883 54.5328 16.8444V7.89453H51.5824V14.246C51.5824 15.5119 50.8284 16.4002 49.5198 16.4002C48.1445 16.4002 47.5232 15.423 47.5232 14.2016V7.89453H44.5731V14.8012C44.5731 17.1775 46.0814 19.1096 48.7211 19.1096C49.8743 19.1096 51.1392 18.6655 51.7381 17.6439C51.7381 18.088 51.7822 18.5988 51.8267 18.8209Z" fill="#B1B2B4"/>
<path d="M60.6313 23.0403V17.7548C61.1635 18.4877 62.2728 19.0873 63.7813 19.0873C66.8644 19.0873 68.927 16.6444 68.927 13.3354C68.927 10.093 67.0862 7.65015 63.892 7.65015C62.2508 7.65015 61.0307 8.38298 60.5427 9.22692V7.89443H57.6814V23.0403H60.6313ZM66.0213 13.3576C66.0213 15.3119 64.8237 16.4445 63.3152 16.4445C61.8072 16.4445 60.5871 15.2897 60.5871 13.3576C60.5871 11.4255 61.8072 10.2929 63.3152 10.2929C64.8237 10.2929 66.0213 11.4255 66.0213 13.3576Z" fill="#B1B2B4"/>
<path d="M70.5979 15.8449C70.5979 17.5549 72.0173 19.1317 74.3467 19.1317C75.9655 19.1317 77.0082 18.3766 77.5626 17.5104C77.5626 17.9324 77.607 18.532 77.6736 18.8207H80.3797C80.3131 18.4432 80.2469 17.6659 80.2469 17.0885V11.7141C80.2469 9.51555 78.9603 7.56128 75.5001 7.56128C72.572 7.56128 70.9969 9.44892 70.8197 11.159L73.437 11.7141C73.5258 10.7592 74.2357 9.93752 75.5219 9.93752C76.7644 9.93752 77.3632 10.5815 77.3632 11.3588C77.3632 11.7364 77.1638 12.0473 76.5426 12.1361L73.8586 12.5359C72.0398 12.8024 70.5979 13.8905 70.5979 15.8449ZM74.9675 16.9331C74.0139 16.9331 73.5478 16.3112 73.5478 15.6672C73.5478 14.8233 74.1466 14.4013 74.9011 14.2903L77.3632 13.9128V14.4013C77.3632 16.3335 76.2097 16.9331 74.9675 16.9331Z" fill="#B1B2B4"/>
<path d="M86.0821 18.8208V17.4883C86.6585 18.4211 87.812 19.0873 89.3204 19.0873C92.4262 19.0873 94.4669 16.6222 94.4669 13.3132C94.4669 10.0708 92.6256 7.60577 89.4315 7.60577C87.812 7.60577 86.6143 8.31642 86.1263 9.09366V2.74219H83.2206V18.8208H86.0821ZM91.5163 13.3354C91.5163 15.3342 90.3187 16.4446 88.8102 16.4446C87.3242 16.4446 86.0821 15.312 86.0821 13.3354C86.0821 11.3367 87.3242 10.2485 88.8102 10.2485C90.3187 10.2485 91.5163 11.3367 91.5163 13.3354Z" fill="#B1B2B4"/>
<path d="M96.1372 15.8449C96.1372 17.5549 97.5567 19.1317 99.8858 19.1317C101.505 19.1317 102.548 18.3766 103.102 17.5104C103.102 17.9324 103.147 18.532 103.213 18.8207H105.919C105.853 18.4432 105.786 17.6659 105.786 17.0885V11.7141C105.786 9.51555 104.5 7.56128 101.039 7.56128C98.1113 7.56128 96.5364 9.44892 96.359 11.159L98.9761 11.7141C99.0651 10.7592 99.775 9.93752 101.061 9.93752C102.304 9.93752 102.902 10.5815 102.902 11.3588C102.902 11.7364 102.703 12.0473 102.082 12.1361L99.398 12.5359C97.5791 12.8024 96.1372 13.8905 96.1372 15.8449ZM100.507 16.9331C99.5532 16.9331 99.0871 16.3112 99.0871 15.6672C99.0871 14.8233 99.6859 14.4013 100.44 14.2903L102.902 13.9128V14.4013C102.902 16.3335 101.749 16.9331 100.507 16.9331Z" fill="#B1B2B4"/>
<path d="M107.828 15.7782C107.961 17.0219 109.092 19.1539 112.375 19.1539C115.237 19.1539 116.612 17.3328 116.612 15.5562C116.612 13.9572 115.525 12.6469 113.373 12.2027L111.821 11.8696C111.222 11.7586 110.823 11.4255 110.823 10.8925C110.823 10.2706 111.444 9.80428 112.22 9.80428C113.463 9.80428 113.928 10.626 114.017 11.27L116.479 10.7148C116.346 9.53778 115.303 7.56128 112.198 7.56128C109.847 7.56128 108.117 9.18246 108.117 11.1367C108.117 12.6691 109.07 13.935 111.178 14.4013L112.619 14.7345C113.463 14.9121 113.795 15.3119 113.795 15.8004C113.795 16.3779 113.329 16.8886 112.353 16.8886C111.067 16.8886 110.424 16.0891 110.357 15.223L107.828 15.7782Z" fill="#B1B2B4"/>
<path d="M121.092 12.1139C121.159 11.1146 122.002 9.9597 123.532 9.9597C125.218 9.9597 125.928 11.0257 125.973 12.1139H121.092ZM126.261 14.9566C125.906 15.9337 125.152 16.6221 123.776 16.6221C122.312 16.6221 121.092 15.5784 121.026 14.1349H128.834C128.834 14.0904 128.878 13.6463 128.878 13.2243C128.878 9.71542 126.86 7.56128 123.488 7.56128C120.693 7.56128 118.12 9.82646 118.12 13.3131C118.12 16.9997 120.76 19.1539 123.754 19.1539C126.438 19.1539 128.168 17.5771 128.723 15.6894L126.261 14.9566Z" fill="#B1B2B4"/>
<path d="M14.1451 25.4416C13.5102 26.2412 12.2229 25.8031 12.2076 24.7822L11.9839 9.85034H22.0241C23.8426 9.85034 24.8568 11.9508 23.726 13.375L14.1451 25.4416Z" fill="#B1B2B4"/>
<path d="M14.1451 25.4416C13.5102 26.2412 12.2229 25.8031 12.2076 24.7822L11.9839 9.85034H22.0241C23.8426 9.85034 24.8568 11.9508 23.726 13.375L14.1451 25.4416Z" fill="url(#paint0_linear_2801_30)" fill-opacity="0.2"/>
<path d="M10.0618 1.41514C10.6967 0.615519 11.984 1.05365 11.9993 2.07457L12.0974 17.0064H2.18283C0.364233 17.0064 -0.650033 14.906 0.480826 13.4817L10.0618 1.41514Z" fill="#B1B2B4"/>
<defs>
<linearGradient id="paint0_linear_2801_30" x1="8.02774" y1="7.74444" x2="12.0973" y2="15.4051" gradientUnits="userSpaceOnUse">
<stop/>
<stop offset="1" stop-opacity="0"/>
</linearGradient>
</defs>
</svg>
